<svg id="Component_63" data-name="Component 63" xmlns="http://www.w3.org/2000/svg" width="20.38" height="19.477" viewBox="0 0 20.38 19.477">
  <g id="Group_18" data-name="Group 18" transform="translate(0 0)">
    <rect id="Rectangle_714" data-name="Rectangle 714" width="4.378" height="13.148" transform="translate(0.252 6.329)" fill="#9d9d9d"/>
    <path id="Path_30" data-name="Path 30" d="M955.564,523.1a4.713,4.713,0,0,0-3.649-1.506,5.28,5.28,0,0,0-1.519.205,3.47,3.47,0,0,0-1.155.577,5.72,5.72,0,0,0-.75.69,5.581,5.581,0,0,0-.517.7V521.9h-4.366l.014.637q.013.637.013,3.927t-.026,8.584h4.366V527.71a3.209,3.209,0,0,1,.146-1.074,2.821,2.821,0,0,1,.843-1.135,2.148,2.148,0,0,1,1.4-.458,1.888,1.888,0,0,1,1.679.79,3.843,3.843,0,0,1,.538,2.183v7.032h4.365v-7.536a6.314,6.314,0,0,0-1.38-4.411Zm0,0" transform="translate(-936.564 -515.57)" fill="#9d9d9d"/>
    <path id="Path_31" data-name="Path 31" d="M911.468,492a2.5,2.5,0,0,0-1.785.643,2.138,2.138,0,0,0-.683,1.625,2.176,2.176,0,0,0,.663,1.619,2.4,2.4,0,0,0,1.752.649h.026a2.5,2.5,0,0,0,1.8-.649,2.1,2.1,0,0,0,.671-1.619,2.213,2.213,0,0,0-.677-1.625,2.428,2.428,0,0,0-1.765-.643Zm0,0" transform="translate(-909 -492)" fill="#9d9d9d"/>
  </g>
</svg>
