<svg id="Component_61" data-name="Component 61" xmlns="http://www.w3.org/2000/svg" width="25.336" height="20.578" viewBox="0 0 25.336 20.578">
  <path id="twitter" d="M22.732,53.21c.016.225.016.45.016.675A14.673,14.673,0,0,1,7.974,68.66,14.674,14.674,0,0,1,0,66.329a10.741,10.741,0,0,0,1.254.064A10.4,10.4,0,0,0,7.7,64.174a5.2,5.2,0,0,1-4.855-3.6,6.548,6.548,0,0,0,.981.08,5.492,5.492,0,0,0,1.366-.177,5.193,5.193,0,0,1-4.164-5.1v-.064a5.229,5.229,0,0,0,2.347.659,5.2,5.2,0,0,1-1.608-6.945,14.76,14.76,0,0,0,10.707,5.434,5.862,5.862,0,0,1-.129-1.19,5.2,5.2,0,0,1,8.987-3.553,10.224,10.224,0,0,0,3.3-1.254,5.179,5.179,0,0,1-2.283,2.862,10.409,10.409,0,0,0,2.99-.8A11.162,11.162,0,0,1,22.732,53.21Z" transform="translate(0 -48.082)" fill="#9d9d9d"/>
</svg>
