<svg id="Component_60" data-name="Component 60" xmlns="http://www.w3.org/2000/svg" width="20.582" height="20.578" viewBox="0 0 20.582 20.578">
  <path id="instagram" d="M10.218,36.838a5.276,5.276,0,1,0,5.276,5.276A5.267,5.267,0,0,0,10.218,36.838Zm0,8.706a3.43,3.43,0,1,1,3.43-3.43,3.436,3.436,0,0,1-3.43,3.43Zm6.722-8.922a1.231,1.231,0,1,1-1.231-1.231A1.228,1.228,0,0,1,16.941,36.622Zm3.494,1.249a6.09,6.09,0,0,0-1.662-4.312A6.13,6.13,0,0,0,14.461,31.9c-1.7-.1-6.791-.1-8.49,0A6.121,6.121,0,0,0,1.66,33.555,6.11,6.11,0,0,0,0,37.866c-.1,1.7-.1,6.791,0,8.49A6.09,6.09,0,0,0,1.66,50.668,6.138,6.138,0,0,0,5.971,52.33c1.7.1,6.791.1,8.49,0a6.09,6.09,0,0,0,4.312-1.662,6.13,6.13,0,0,0,1.662-4.312C20.531,44.658,20.531,39.57,20.435,37.871ZM18.24,48.179a3.473,3.473,0,0,1-1.956,1.956c-1.355.537-4.569.413-6.066.413s-4.716.119-6.066-.413A3.473,3.473,0,0,1,2.2,48.179c-.537-1.355-.413-4.569-.413-6.066S1.664,37.4,2.2,36.048a3.473,3.473,0,0,1,1.956-1.956c1.355-.537,4.569-.413,6.066-.413s4.716-.119,6.066.413a3.473,3.473,0,0,1,1.956,1.956c.537,1.355.413,4.569.413,6.066S18.777,46.829,18.24,48.179Z" transform="translate(0.075 -31.825)" fill="#9d9d9d" opacity="0.999"/>
</svg>
