<svg xmlns="http://www.w3.org/2000/svg" width="206.716" height="55.271" viewBox="0 0 206.716 55.271">
  <g id="Group_10796" data-name="Group 10796" transform="translate(-157.621 -201.062)">
    <path id="Path_11134" data-name="Path 11134" d="M607.136,234.323c1.06,0,1.222,1.605,1.222,2.412,0,.782-.163,2.4-1.222,2.4s-1.222-1.589-1.222-2.412.171-2.4,1.205-2.4Zm-.017-.486c-1.649,0-2.384,1.572-2.384,2.9,0,1.3.735,2.906,2.384,2.906a2.381,2.381,0,0,0,2.587-2.416c0-1.317-.921-3.388-2.569-3.388Zm-6.221-3.795c1.06,0,1.222,1.638,1.222,2.42s-.162,2.4-1.222,2.4c-1.042,0-1.256-1.589-1.256-2.4s.214-2.42,1.239-2.42Zm-.017-.47c-1.667,0-2.359,1.573-2.359,2.89,0,1.292.692,2.9,2.359,2.9s2.367-1.606,2.367-2.9c0-1.317-.7-2.89-2.35-2.89Zm6.6.107-.589-.37L600.42,239.6l.53.379Zm-13.741,1.7c1.5,0,1.931,1.967,1.931,3.844s-.41,3.861-1.914,3.861c-1.478,0-1.983-2.009-1.983-3.861,0-1.877.427-3.844,1.948-3.844Zm0-.535c-2.392,0-3.273,2.412-3.273,4.379,0,2.264.88,4.412,3.273,4.412,2.376,0,3.256-2.428,3.256-4.412,0-2.148-.88-4.379-3.238-4.379Zm-7.9.535c1.5,0,1.931,1.967,1.931,3.844s-.41,3.861-1.914,3.861c-1.478,0-1.982-2.009-1.982-3.861,0-1.877.427-3.844,1.948-3.844Zm0-.535c-2.393,0-3.273,2.412-3.273,4.379,0,2.264.88,4.412,3.273,4.412,2.375,0,3.255-2.428,3.255-4.412,0-2.148-.88-4.379-3.238-4.379Zm-5.615,8.611v-.478c-1.5-.09-1.6-.181-1.6-1.325V230.85a12.087,12.087,0,0,1-2.743.79v.411l.8.017c.7.033.743.09.743.856v4.733c0,1.128-.077,1.235-1.547,1.325v.478Z" transform="translate(-255.159 -17.232)" fill="#fff"/>
    <path id="Path_11135" data-name="Path 11135" d="M345.57,284.816q.03-4.181-1.789-6.376a6.155,6.155,0,0,0-5.01-2.2,6.7,6.7,0,0,0-2.982.642,6.522,6.522,0,0,0-2.222,1.762,8.134,8.134,0,0,0-1.4,2.613,10.163,10.163,0,0,0-.492,3.2,11.656,11.656,0,0,0,.418,3.181,7.231,7.231,0,0,0,1.282,2.568,6.014,6.014,0,0,0,2.206,1.717,7.476,7.476,0,0,0,3.191.627,7.74,7.74,0,0,0,2.564-.388,5.793,5.793,0,0,0,1.909-1.09,6.308,6.308,0,0,0,1.342-1.643,9.681,9.681,0,0,0,.864-2.046h-2a4.463,4.463,0,0,1-1.67,2.628,4.925,4.925,0,0,1-3.012.925,5,5,0,0,1-2.267-.493,4.7,4.7,0,0,1-1.625-1.314,5.734,5.734,0,0,1-.969-1.941,8.408,8.408,0,0,1-.328-2.375Zm-11.987-1.493a8,8,0,0,1,.507-2.091,5.988,5.988,0,0,1,1.029-1.732,4.824,4.824,0,0,1,1.551-1.195,4.7,4.7,0,0,1,2.1-.448,4.948,4.948,0,0,1,2.118.433,4.4,4.4,0,0,1,1.535,1.165,5,5,0,0,1,.925,1.732,7.13,7.13,0,0,1,.313,2.135Zm-15.895,8.81V283.8q0-.807.06-1.494a5.7,5.7,0,0,1,.328-1.433,4.414,4.414,0,0,1,.6-1.135,4.5,4.5,0,0,1,.939-.956,4.788,4.788,0,0,1,1.238-.672,4.354,4.354,0,0,1,1.521-.254,3.924,3.924,0,0,1,3.071,1.045,4.618,4.618,0,0,1,.924,3.136v10.094h1.789V282.009a15.834,15.834,0,0,0-.1-1.837,3.868,3.868,0,0,0-.671-1.717,4.534,4.534,0,0,0-2.057-1.717,7.033,7.033,0,0,0-2.654-.493,5.1,5.1,0,0,0-2.758.717,11.349,11.349,0,0,0-2.222,1.852V270.63H315.9v21.5Zm-5.607-10.6a5.965,5.965,0,0,0-2.072-4,6.884,6.884,0,0,0-4.339-1.284,6.679,6.679,0,0,0-3.057.672,6.565,6.565,0,0,0-2.222,1.807,8.071,8.071,0,0,0-1.357,2.613,10.288,10.288,0,0,0-.462,3.091,11.8,11.8,0,0,0,.418,3.2,7.227,7.227,0,0,0,1.282,2.583,6.014,6.014,0,0,0,2.206,1.717,8.352,8.352,0,0,0,5.785.209,5.764,5.764,0,0,0,1.953-1.18,6.185,6.185,0,0,0,1.342-1.822,9.012,9.012,0,0,0,.76-2.344h-1.909a5.137,5.137,0,0,1-1.536,3.046,4.562,4.562,0,0,1-3.206,1.1,4.808,4.808,0,0,1-2.386-.552,4.683,4.683,0,0,1-1.61-1.479,6.387,6.387,0,0,1-.909-2.09,10.056,10.056,0,0,1-.284-2.389,9.655,9.655,0,0,1,.3-2.375,6.79,6.79,0,0,1,.925-2.12,4.772,4.772,0,0,1,1.61-1.508,4.643,4.643,0,0,1,2.356-.567,4.452,4.452,0,0,1,2.952.97,5.207,5.207,0,0,1,1.64,2.7Zm-17.236-8.243V270.63h-1.968v2.658Zm-.089,18.845v-15.47h-1.789v15.47ZM269.409,283.8q0-.477.045-1.045a8.9,8.9,0,0,1,.164-1.135,7.61,7.61,0,0,1,.313-1.09,3.456,3.456,0,0,1,.492-.911,4.318,4.318,0,0,1,3.489-1.762,3.051,3.051,0,0,1,2.609.955,4.365,4.365,0,0,1,.7,2.628v10.692h1.789V283.8q0-.477.045-1.045a8.968,8.968,0,0,1,.164-1.135,7.658,7.658,0,0,1,.314-1.09,3.455,3.455,0,0,1,.492-.911,4.318,4.318,0,0,1,3.489-1.762,3.052,3.052,0,0,1,2.609.955,4.371,4.371,0,0,1,.7,2.628v10.692h1.79v-9.766a15.461,15.461,0,0,0-.164-2.27,5.307,5.307,0,0,0-.671-1.956,3.779,3.779,0,0,0-1.446-1.374,5.2,5.2,0,0,0-2.52-.523,5.937,5.937,0,0,0-2.967.732,5.211,5.211,0,0,0-2.072,2.255,6.416,6.416,0,0,0-.581-1.164,3.706,3.706,0,0,0-.865-.941,4.117,4.117,0,0,0-1.267-.642,6.022,6.022,0,0,0-1.819-.239,5.748,5.748,0,0,0-2.8.7,4.714,4.714,0,0,0-1.968,2.045h-.06v-2.329H267.62v15.47h1.789Zm-13.509-.359q-5.4.718-5.4,4.66a4.26,4.26,0,0,0,.418,1.956,4.138,4.138,0,0,0,1.133,1.389,4.712,4.712,0,0,0,1.655.836,7.058,7.058,0,0,0,1.953.269,7.627,7.627,0,0,0,3.161-.657,7.779,7.779,0,0,0,2.594-1.912,4.965,4.965,0,0,0,.059.792,2.22,2.22,0,0,0,.224.687,1.744,1.744,0,0,0,.432.537,1.372,1.372,0,0,0,.716.284,3.542,3.542,0,0,0,.805.09,2.786,2.786,0,0,0,.79-.119l.611-.179v-1.4q-1.134.418-1.506.134t-.373-1.329v-8.422a5.344,5.344,0,0,0-.432-2.27,3.747,3.747,0,0,0-1.193-1.478,5.082,5.082,0,0,0-1.79-.806,9.14,9.14,0,0,0-2.192-.254,9.609,9.609,0,0,0-2.371.284,5.749,5.749,0,0,0-1.968.9,4.756,4.756,0,0,0-1.387,1.583,5.54,5.54,0,0,0-.626,2.345h1.819a4.561,4.561,0,0,1,.492-1.688,3.125,3.125,0,0,1,.954-1.075,3.7,3.7,0,0,1,1.357-.567,8.229,8.229,0,0,1,1.7-.164,4.105,4.105,0,0,1,2.967.881,3.06,3.06,0,0,1,.879,2.255,4.4,4.4,0,0,1-.1.911.951.951,0,0,1-.551.7,4.533,4.533,0,0,1-1.148.328q-.7.12-1.208.179Zm5.487,2.987a4.063,4.063,0,0,1-.477,2.015,4.193,4.193,0,0,1-1.267,1.4,5.639,5.639,0,0,1-1.8.821,8.1,8.1,0,0,1-2.087.269,4.744,4.744,0,0,1-1.238-.164,3.127,3.127,0,0,1-1.074-.508,2.605,2.605,0,0,1-.746-.866,2.561,2.561,0,0,1-.283-1.24,2.655,2.655,0,0,1,1.148-2.359,6.553,6.553,0,0,1,3.206-.926q1.164-.089,2.326-.239a8.729,8.729,0,0,0,2.3-.627Zm-18.161-1.882a13.222,13.222,0,0,1,.223-2.464,5.455,5.455,0,0,1,.805-2.046,4.127,4.127,0,0,1,1.566-1.373,5.223,5.223,0,0,1,2.5-.478v-1.941a5.851,5.851,0,0,0-3.116.732,5.186,5.186,0,0,0-1.923,2.583h-.06v-2.9h-1.789v15.47h1.789Zm-5.368.269q.029-4.181-1.789-6.376a6.154,6.154,0,0,0-5.01-2.2,6.7,6.7,0,0,0-2.982.642,6.516,6.516,0,0,0-2.221,1.762,8.136,8.136,0,0,0-1.4,2.613,10.162,10.162,0,0,0-.492,3.2,11.655,11.655,0,0,0,.417,3.181,7.238,7.238,0,0,0,1.283,2.568,6.014,6.014,0,0,0,2.206,1.717,7.473,7.473,0,0,0,3.191.627,7.742,7.742,0,0,0,2.565-.388,5.8,5.8,0,0,0,1.909-1.09,6.315,6.315,0,0,0,1.342-1.643,9.7,9.7,0,0,0,.865-2.046h-2a4.46,4.46,0,0,1-1.67,2.628,4.924,4.924,0,0,1-3.012.925,5,5,0,0,1-2.266-.493,4.686,4.686,0,0,1-1.625-1.314,5.733,5.733,0,0,1-.969-1.941,8.393,8.393,0,0,1-.328-2.375Zm-11.988-1.493a8.044,8.044,0,0,1,.507-2.091,6.006,6.006,0,0,1,1.029-1.732,4.833,4.833,0,0,1,1.551-1.195,4.7,4.7,0,0,1,2.1-.448,4.947,4.947,0,0,1,2.118.433,4.411,4.411,0,0,1,1.536,1.165,5,5,0,0,1,.924,1.732,7.105,7.105,0,0,1,.313,2.135Zm-4.921-1.792a5.966,5.966,0,0,0-2.072-4,6.886,6.886,0,0,0-4.339-1.284,6.68,6.68,0,0,0-3.057.672,6.569,6.569,0,0,0-2.222,1.807,8.061,8.061,0,0,0-1.357,2.613,10.288,10.288,0,0,0-.463,3.091,11.818,11.818,0,0,0,.418,3.2,7.228,7.228,0,0,0,1.283,2.583,6.011,6.011,0,0,0,2.206,1.717,8.352,8.352,0,0,0,5.785.209,5.772,5.772,0,0,0,1.953-1.18,6.183,6.183,0,0,0,1.342-1.822,9.027,9.027,0,0,0,.76-2.344H219.28a5.139,5.139,0,0,1-1.536,3.046,4.563,4.563,0,0,1-3.206,1.1,4.8,4.8,0,0,1-2.385-.552,4.688,4.688,0,0,1-1.611-1.479,6.386,6.386,0,0,1-.909-2.09,10.055,10.055,0,0,1-.283-2.389,9.636,9.636,0,0,1,.3-2.375,6.781,6.781,0,0,1,.924-2.12,4.775,4.775,0,0,1,1.61-1.508,4.644,4.644,0,0,1,2.356-.567,4.454,4.454,0,0,1,2.952.97,5.209,5.209,0,0,1,1.64,2.7Z" transform="translate(-30.392 -42.438)" fill="#fff"/>
    <path id="Path_11136" data-name="Path 11136" d="M306.849,217.488a12.69,12.69,0,0,0-4.584,1.276,5.66,5.66,0,0,0-2.842,5.3,5.48,5.48,0,0,0,1.767,4.366,6.562,6.562,0,0,0,4.476,1.54,7.515,7.515,0,0,0,3.808-.966,10.712,10.712,0,0,0,2.49-1.987q.054.674.146,1.2a5.8,5.8,0,0,0,.327,1.131h5.643v-.766a1.855,1.855,0,0,1-.764-.6,2.887,2.887,0,0,1-.309-1.385q-.036-1.349-.037-2.3v-9.114q0-3.59-2.541-4.885a12.633,12.633,0,0,0-5.812-1.294q-5.028,0-7.093,2.625a7.608,7.608,0,0,0-1.462,4.283h5.006a3.754,3.754,0,0,1,.738-1.823,3.3,3.3,0,0,1,2.638-.912,5.411,5.411,0,0,1,2.518.465,1.746,1.746,0,0,1,.858,1.686,1.563,1.563,0,0,1-1.118,1.476,8.2,8.2,0,0,1-2.072.455Zm4.951,4.138q-.056,2.607-1.488,3.591a5.415,5.415,0,0,1-3.133.984,2.841,2.841,0,0,1-1.82-.592,2.305,2.305,0,0,1-.749-1.923,2.374,2.374,0,0,1,1.226-2.206,7.758,7.758,0,0,1,2.384-.711l1.181-.219a8.482,8.482,0,0,0,1.393-.355,5.716,5.716,0,0,0,1.006-.5Zm-22.715-8.257V225.6a3.8,3.8,0,0,0,.874,2.752q1.347,1.4,5.024,1.276l2.457-.091v-3.883q-.255.018-.519.027c-.176.006-.343.009-.5.009a3.4,3.4,0,0,1-1.893-.3,2.365,2.365,0,0,1-.309-1.522v-10.5h3.221v-3.7h-3.221v-5.541h-5.133v5.541h-2.766v3.7Zm-12.511-4.356a6.527,6.527,0,0,0-4.042,1.2,8.81,8.81,0,0,0-1.885,2.206v-2.9h-5.024v19.832h5.187V218.6a7.769,7.769,0,0,1,.506-3.026,3.583,3.583,0,0,1,3.6-2.242,2.918,2.918,0,0,1,2.891,1.531,5.563,5.563,0,0,1,.415,2.406v12.086h5.315v-13.38q0-3.737-1.948-5.35A7.6,7.6,0,0,0,276.574,209.012ZM255.3,229.354h5.26V209.485H255.3Zm5.26-27.032H255.3v4.794h5.26Zm-17.018,11.046V225.6a3.8,3.8,0,0,0,.874,2.752q1.347,1.4,5.024,1.276l2.457-.091v-3.883q-.255.018-.519.027t-.5.009a3.4,3.4,0,0,1-1.893-.3,2.367,2.367,0,0,1-.309-1.522v-10.5H251.9v-3.7h-3.222v-5.541h-5.133v5.541h-2.767v3.7Zm-15.38,4.119a12.69,12.69,0,0,0-4.584,1.276,5.659,5.659,0,0,0-2.842,5.3,5.48,5.48,0,0,0,1.767,4.366,6.565,6.565,0,0,0,4.476,1.54,7.514,7.514,0,0,0,3.808-.966,10.712,10.712,0,0,0,2.49-1.987q.055.674.146,1.2a5.771,5.771,0,0,0,.328,1.131H239.4v-.766a1.85,1.85,0,0,1-.764-.6,2.882,2.882,0,0,1-.31-1.385q-.037-1.349-.037-2.3v-9.114q0-3.59-2.541-4.885a12.633,12.633,0,0,0-5.813-1.294q-5.027,0-7.093,2.625a7.609,7.609,0,0,0-1.462,4.283h5.005a3.757,3.757,0,0,1,.738-1.823,3.3,3.3,0,0,1,2.638-.912,5.413,5.413,0,0,1,2.518.465,1.746,1.746,0,0,1,.858,1.686,1.563,1.563,0,0,1-1.118,1.476,8.2,8.2,0,0,1-2.072.455Zm4.951,4.138q-.056,2.607-1.488,3.591a5.415,5.415,0,0,1-3.133.984,2.841,2.841,0,0,1-1.82-.592,2.305,2.305,0,0,1-.749-1.923,2.373,2.373,0,0,1,1.226-2.206,7.75,7.75,0,0,1,2.384-.711l1.181-.219a8.492,8.492,0,0,0,1.393-.355,5.717,5.717,0,0,0,1.006-.5Zm-14.761-12.614a5.7,5.7,0,0,0-3.786,1.221,11,11,0,0,0-2.093,2.716v-3.464h-4.951v19.869h5.224v-9.5a7.957,7.957,0,0,1,.6-3.536q1.074-2.042,4.2-2.042.236,0,.619.018t.874.073v-5.323c-.23-.012-.379-.021-.446-.027S218.452,209.012,218.355,209.012Zm-14.506,0a5.694,5.694,0,0,0-3.786,1.221,10.982,10.982,0,0,0-2.093,2.716v-3.464h-4.951v19.869h5.224v-9.5a7.951,7.951,0,0,1,.6-3.536q1.073-2.042,4.2-2.042c.158,0,.364.006.619.018s.546.036.874.073v-5.323q-.346-.018-.446-.027C204.028,209.015,203.946,209.012,203.849,209.012Zm-23.244-.055a9.557,9.557,0,0,0-7.095,2.755q-2.733,2.755-2.733,7.918,0,5.51,3.027,7.955a10.8,10.8,0,0,0,6.988,2.444,9.633,9.633,0,0,0,7.464-2.9,6.492,6.492,0,0,0,1.923-3.591h-5.3a4.029,4.029,0,0,1-3.948,2.279,5.26,5.26,0,0,1-2.86-.748A4.77,4.77,0,0,1,176,220.878h14.45a25.417,25.417,0,0,0-.171-3.943,9.78,9.78,0,0,0-1.581-4.108,8.075,8.075,0,0,0-3.429-2.939A11.278,11.278,0,0,0,180.6,208.957Zm0,4.283a4.542,4.542,0,0,1,3.077,1.071,4.339,4.339,0,0,1,1.382,3.14h-8.937a5.4,5.4,0,0,1,1.382-3.076A4.111,4.111,0,0,1,180.607,213.24Zm-19.949.128V225.6a3.8,3.8,0,0,0,.874,2.752q1.347,1.4,5.024,1.276l2.457-.091v-3.883q-.255.018-.519.027t-.5.009a3.4,3.4,0,0,1-1.893-.3,2.367,2.367,0,0,1-.31-1.522v-10.5h3.222v-3.7H165.79v-5.541h-5.132v5.541h-2.766v3.7Z" transform="translate(-0.165 -0.768)" fill="#fff"/>
    <path id="Path_11137" data-name="Path 11137" d="M306.685,217.323l-.014-.1a12.776,12.776,0,0,0-4.623,1.289,5.767,5.767,0,0,0-2.895,5.4,5.587,5.587,0,0,0,1.8,4.445,6.666,6.666,0,0,0,4.545,1.566,7.615,7.615,0,0,0,3.86-.98,10.835,10.835,0,0,0,2.515-2.006l-.077-.071-.1.009q.056.678.147,1.212a5.852,5.852,0,0,0,.333,1.151l.026.067h5.819v-.939l-.061-.028a1.756,1.756,0,0,1-.723-.566,2.819,2.819,0,0,1-.29-1.331q-.037-1.344-.037-2.291v-9.114c0-2.416-.865-4.1-2.6-4.979a12.737,12.737,0,0,0-5.86-1.305c-3.368,0-5.771.88-7.176,2.665a7.715,7.715,0,0,0-1.485,4.342l-.007.112h5.207l.014-.089A3.645,3.645,0,0,1,305.72,214a3.2,3.2,0,0,1,2.557-.873,5.316,5.316,0,0,1,2.468.452,1.64,1.64,0,0,1,.8,1.593,1.456,1.456,0,0,1-1.054,1.379,8.113,8.113,0,0,1-2.044.448l-1.779.219.013.1.012.1,1.779-.219a8.261,8.261,0,0,0,2.1-.464,1.669,1.669,0,0,0,1.182-1.573,1.853,1.853,0,0,0-.914-1.779,5.511,5.511,0,0,0-2.568-.478,3.406,3.406,0,0,0-2.718.948,3.862,3.862,0,0,0-.762,1.875l.1.017v-.106H299.9v.106l.105.006a7.5,7.5,0,0,1,1.44-4.225c1.349-1.714,3.675-2.584,7.01-2.584a12.527,12.527,0,0,1,5.765,1.283c1.654.846,2.479,2.419,2.483,4.791v9.114q0,.95.037,2.3a2.971,2.971,0,0,0,.328,1.443,1.964,1.964,0,0,0,.807.636l.044-.1h-.1v.661h-5.538v.106l.1-.039a5.692,5.692,0,0,1-.322-1.11q-.09-.522-.145-1.193l-.02-.239-.162.176a10.617,10.617,0,0,1-2.465,1.967,7.414,7.414,0,0,1-3.755.952,6.458,6.458,0,0,1-4.407-1.515,5.375,5.375,0,0,1-1.731-4.286,5.552,5.552,0,0,1,2.789-5.213,12.59,12.59,0,0,1,4.545-1.263Zm4.951,4.138-.105,0c-.038,1.721-.526,2.876-1.442,3.506a5.309,5.309,0,0,1-3.073.966,2.733,2.733,0,0,1-1.755-.57,2.2,2.2,0,0,1-.709-1.84,2.266,2.266,0,0,1,1.173-2.115,7.694,7.694,0,0,1,2.35-.7l1.182-.219a8.622,8.622,0,0,0,1.411-.361,5.863,5.863,0,0,0,1.024-.51l-.055-.09h-.105v1.932h.21v-2.122l-.161.1a5.611,5.611,0,0,1-.987.492,8.408,8.408,0,0,1-1.375.35l-1.181.219a7.851,7.851,0,0,0-2.418.723,2.482,2.482,0,0,0-1.278,2.3,2.412,2.412,0,0,0,.789,2.006,2.948,2.948,0,0,0,1.886.615,5.521,5.521,0,0,0,3.192-1c.993-.682,1.5-1.921,1.533-3.675ZM288.92,213.2h-.105v12.231a3.9,3.9,0,0,0,.9,2.826c.858.891,2.362,1.317,4.5,1.318.194,0,.394,0,.6-.011l2.559-.095v-4.1l-.113.008q-.253.019-.515.027c-.175.006-.341.009-.5.009a3.444,3.444,0,0,1-1.82-.271,2.323,2.323,0,0,1-.277-1.447V213.309h3.222V209.4h-3.222v-5.541h-5.343V209.4h-2.766v3.911h2.872v-.1h0V213.1h-2.662v-3.489h2.767v-5.541h4.922v5.541h3.221V213.1h-3.221v10.6a2.417,2.417,0,0,0,.341,1.6c.27.246.9.324,1.966.33.159,0,.327,0,.5-.009s.351-.015.523-.027l-.007-.1h-.1v3.781l-2.356.088c-.2.007-.4.011-.592.01-2.117,0-3.564-.429-4.352-1.254a3.7,3.7,0,0,1-.844-2.679V213.1h-.105Zm-12.511-4.356v-.105a6.629,6.629,0,0,0-4.105,1.224,8.892,8.892,0,0,0-1.909,2.232l.088.057h.105v-3h-5.234v20.043h5.4v-10.86a7.65,7.65,0,0,1,.5-2.984,3.475,3.475,0,0,1,3.5-2.178,2.811,2.811,0,0,1,2.8,1.473,5.46,5.46,0,0,1,.4,2.359V229.3h5.525V215.81c0-2.508-.655-4.328-1.987-5.431a7.7,7.7,0,0,0-5.078-1.637v.21a7.489,7.489,0,0,1,4.944,1.589c1.266,1.048,1.91,2.794,1.911,5.269v13.274h-5.1V217.1a5.666,5.666,0,0,0-.427-2.453,3.024,3.024,0,0,0-2.985-1.59,3.691,3.691,0,0,0-3.692,2.306,7.861,7.861,0,0,0-.514,3.068v10.649h-4.977V209.463h4.813v3.148l.193-.3a8.707,8.707,0,0,1,1.86-2.18,6.422,6.422,0,0,1,3.978-1.182Zm-21.27,20.342v.105H260.5v-20.08h-5.471V229.3h.105v-.105h.1V209.426h5.05v19.658h-5.155v.106h0Zm5.26-27.032v-.105h-5.365v5H260.5v-5H260.4v.105h-.1v4.689h-5.05v-4.583H260.4v-.105h0ZM243.381,213.2h-.105v12.231a3.9,3.9,0,0,0,.9,2.826c.857.891,2.362,1.317,4.5,1.318.194,0,.394,0,.6-.011l2.559-.095v-4.1l-.113.008q-.253.019-.514.027c-.175.006-.341.009-.5.009a3.444,3.444,0,0,1-1.82-.271,2.328,2.328,0,0,1-.278-1.447V213.309h3.222V209.4h-3.222v-5.541h-5.343V209.4h-2.766v3.911h2.872v-.1h0V213.1h-2.662v-3.489h2.766v-5.541h4.923v5.541h3.222V213.1h-3.222v10.6a2.419,2.419,0,0,0,.342,1.6c.271.246.9.324,1.966.33.159,0,.327,0,.5-.009s.351-.015.523-.027l-.007-.1h-.105v3.781l-2.356.088c-.2.007-.4.011-.592.01-2.117,0-3.564-.429-4.352-1.254a3.7,3.7,0,0,1-.844-2.679V213.1h-.1ZM228,217.323l-.013-.1a12.773,12.773,0,0,0-4.623,1.289,5.767,5.767,0,0,0-2.895,5.4,5.587,5.587,0,0,0,1.8,4.445,6.666,6.666,0,0,0,4.545,1.566,7.615,7.615,0,0,0,3.86-.98,10.817,10.817,0,0,0,2.515-2.006l-.077-.071-.1.009q.056.678.147,1.212a5.882,5.882,0,0,0,.333,1.151l.026.067h5.819v-.938l-.061-.028a1.751,1.751,0,0,1-.723-.566,2.813,2.813,0,0,1-.291-1.331q-.037-1.344-.037-2.291v-9.114c0-2.416-.865-4.1-2.6-4.979a12.738,12.738,0,0,0-5.861-1.305c-3.367,0-5.77.88-7.175,2.665a7.713,7.713,0,0,0-1.485,4.342l-.007.112h5.207l.014-.089a3.656,3.656,0,0,1,.716-1.772,3.2,3.2,0,0,1,2.557-.873,5.316,5.316,0,0,1,2.468.452,1.64,1.64,0,0,1,.8,1.593,1.456,1.456,0,0,1-1.054,1.379,8.1,8.1,0,0,1-2.043.448l-1.779.219.013.1.013.1,1.779-.219a8.253,8.253,0,0,0,2.1-.464,1.668,1.668,0,0,0,1.182-1.573,1.852,1.852,0,0,0-.913-1.779,5.514,5.514,0,0,0-2.568-.478,3.407,3.407,0,0,0-2.718.948,3.865,3.865,0,0,0-.762,1.875l.1.017v-.106h-5.005v.106l.1.006a7.5,7.5,0,0,1,1.441-4.225c1.349-1.714,3.674-2.584,7.01-2.584a12.526,12.526,0,0,1,5.765,1.283c1.654.846,2.48,2.419,2.483,4.791v9.114q0,.95.036,2.3a2.969,2.969,0,0,0,.329,1.443,1.958,1.958,0,0,0,.806.636l.044-.1h-.105v.66h-5.537v.106l.1-.039a5.694,5.694,0,0,1-.322-1.11q-.09-.522-.145-1.193l-.02-.239-.162.176a10.594,10.594,0,0,1-2.465,1.967,7.41,7.41,0,0,1-3.755.952,6.458,6.458,0,0,1-4.407-1.515,5.374,5.374,0,0,1-1.731-4.286,5.552,5.552,0,0,1,2.789-5.213,12.585,12.585,0,0,1,4.545-1.263Zm4.951,4.138-.105,0c-.038,1.721-.525,2.876-1.442,3.506a5.309,5.309,0,0,1-3.073.966,2.734,2.734,0,0,1-1.755-.57,2.2,2.2,0,0,1-.709-1.84,2.266,2.266,0,0,1,1.173-2.115,7.686,7.686,0,0,1,2.35-.7l1.182-.219a8.618,8.618,0,0,0,1.411-.361,5.881,5.881,0,0,0,1.024-.51l-.055-.09h-.106v1.932h.211v-2.123l-.161.1a5.61,5.61,0,0,1-.987.492,8.407,8.407,0,0,1-1.375.35l-1.181.219a7.844,7.844,0,0,0-2.418.723,2.48,2.48,0,0,0-1.278,2.3,2.411,2.411,0,0,0,.788,2.006,2.949,2.949,0,0,0,1.886.615,5.521,5.521,0,0,0,3.192-1c.993-.682,1.5-1.921,1.533-3.675ZM218.19,208.847v-.106a5.8,5.8,0,0,0-3.853,1.246,11.071,11.071,0,0,0-2.116,2.742l.09.055h.105v-3.569h-5.161V229.3h5.434v-9.6a7.867,7.867,0,0,1,.589-3.488c.7-1.318,2.043-1.982,4.111-1.985.155,0,.36.006.614.018s.541.036.867.073l.117.013v-5.54l-.1-.005c-.23-.012-.379-.021-.441-.027s-.156-.009-.256-.009v.21c.095,0,.174,0,.236.009s.218.016.45.027l.005-.1h-.105v5.323h.105l.011-.1q-.494-.055-.88-.073c-.256-.012-.463-.018-.624-.018-2.107,0-3.562.695-4.3,2.1a8.043,8.043,0,0,0-.613,3.585v9.391h-5.013V209.426h4.74v3.735l.195-.323a10.918,10.918,0,0,1,2.07-2.689,5.589,5.589,0,0,1,3.72-1.2Zm-14.506,0v-.106a5.8,5.8,0,0,0-3.854,1.246,11.08,11.08,0,0,0-2.115,2.742l.09.055h.1v-3.569h-5.161V229.3h5.434v-9.6a7.857,7.857,0,0,1,.589-3.488c.7-1.318,2.043-1.982,4.111-1.985.155,0,.36.006.614.018s.541.036.867.073l.117.013v-5.54l-.1-.005c-.23-.012-.379-.021-.441-.027s-.156-.009-.255-.009v.21q.142,0,.236.009c.07.007.218.016.45.027l.006-.1h-.105v5.323h.105l.011-.1q-.494-.055-.88-.073c-.256-.012-.463-.018-.624-.018-2.107,0-3.561.695-4.3,2.1a8.049,8.049,0,0,0-.613,3.585v9.391h-5.014V209.426h4.74v3.736l.2-.323a10.907,10.907,0,0,1,2.07-2.689,5.589,5.589,0,0,1,3.72-1.2Zm-23.244-.055v-.105a9.664,9.664,0,0,0-7.169,2.786c-1.847,1.861-2.764,4.533-2.764,7.992,0,3.69,1.016,6.381,3.067,8.036a10.908,10.908,0,0,0,7.054,2.468,9.739,9.739,0,0,0,7.541-2.932,6.593,6.593,0,0,0,1.95-3.65l.014-.118h-5.478l-.03.056a3.925,3.925,0,0,1-3.855,2.222,5.154,5.154,0,0,1-2.8-.731,4.665,4.665,0,0,1-2.026-4.108l-.1,0v.105h14.553l0-.1q.006-.4.005-.771a22.275,22.275,0,0,0-.177-3.19,9.886,9.886,0,0,0-1.6-4.152,8.181,8.181,0,0,0-3.472-2.975,11.392,11.392,0,0,0-4.709-.94v.211a11.177,11.177,0,0,1,4.623.922,7.968,7.968,0,0,1,3.384,2.9,9.672,9.672,0,0,1,1.564,4.065,22.067,22.067,0,0,1,.175,3.158q0,.37-.005.767l.105,0v-.105H175.727l0,.11A4.875,4.875,0,0,0,177.856,225a5.364,5.364,0,0,0,2.915.763,4.132,4.132,0,0,0,4.04-2.334l-.093-.049v.105h5.3v-.105l-.1-.012a6.39,6.39,0,0,1-1.9,3.531,9.529,9.529,0,0,1-7.387,2.865,10.7,10.7,0,0,1-6.922-2.421c-1.987-1.6-2.988-4.216-2.988-7.872,0-3.424.9-6.031,2.7-7.844a9.45,9.45,0,0,1,7.02-2.724Zm0,4.283v.105a4.437,4.437,0,0,1,3.008,1.046,4.234,4.234,0,0,1,1.345,3.067l.105-.007v-.105h-8.937v.105l.1.015a5.3,5.3,0,0,1,1.354-3.018,4.007,4.007,0,0,1,3.021-1.1v-.211a4.216,4.216,0,0,0-3.172,1.167,5.508,5.508,0,0,0-1.411,3.134l-.018.12h9.171l-.008-.113a4.442,4.442,0,0,0-1.418-3.212,4.647,4.647,0,0,0-3.145-1.1Zm-19.949.128h-.105v12.231a3.9,3.9,0,0,0,.9,2.826c.857.891,2.362,1.317,4.5,1.318.194,0,.394,0,.6-.011l2.559-.095v-4.1l-.112.008q-.253.019-.515.027c-.175.006-.341.009-.5.009a3.444,3.444,0,0,1-1.82-.271,2.325,2.325,0,0,1-.278-1.447V213.309h3.222V209.4H165.73v-5.541h-5.343V209.4h-2.766v3.911h2.872v-.1h0V213.1h-2.662v-3.489H160.6v-5.541h4.922v5.541h3.222V213.1H165.52v10.6a2.422,2.422,0,0,0,.341,1.6c.271.246.9.324,1.966.33.159,0,.327,0,.5-.009s.351-.015.523-.027l-.007-.1h-.105v3.781l-2.356.088c-.2.007-.4.011-.592.01-2.117,0-3.564-.429-4.352-1.254a3.7,3.7,0,0,1-.844-2.679V213.1h-.1Z" transform="translate(0 -0.604)" fill="#fff"/>
    <path id="Path_11138" data-name="Path 11138" d="M583.33,209.63a.39.39,0,0,0-.534-.158l-.094.051a.394.394,0,0,0,.376.693l.094-.051A.391.391,0,0,0,583.33,209.63Z" transform="translate(-259.186 -5.101)" fill="#fff"/>
    <path id="Path_11139" data-name="Path 11139" d="M590.1,206.453a.39.39,0,0,0-.514-.214l-.1.041a.394.394,0,1,0,.3.729l.1-.041A.391.391,0,0,0,590.1,206.453Z" transform="translate(-263.303 -3.139)" fill="#fff"/>
    <path id="Path_11140" data-name="Path 11140" d="M597.145,204.042a.39.39,0,0,0-.488-.268l-.1.03a.394.394,0,0,0,.22.757l.1-.03A.39.39,0,0,0,597.145,204.042Z" transform="translate(-267.588 -1.644)" fill="#fff"/>
    <path id="Path_11141" data-name="Path 11141" d="M604.426,202.4a.389.389,0,0,0-.456-.32l-.106.019a.394.394,0,0,0,.138.777l.106-.019A.39.39,0,0,0,604.426,202.4Z" transform="translate(-272.022 -0.615)" fill="#fff"/>
    <path id="Path_11142" data-name="Path 11142" d="M611.859,201.544a.39.39,0,0,0-.42-.367l-.107.007a.394.394,0,0,0,.053.787l.107-.007A.39.39,0,0,0,611.859,201.544Z" transform="translate(-276.552 -0.07)" fill="#fff"/>
    <path id="Path_11143" data-name="Path 11143" d="M619.312,201.475a.39.39,0,0,0-.379-.408l-.107,0a.394.394,0,0,0-.029.788l.107,0A.391.391,0,0,0,619.312,201.475Z" transform="translate(-281.099)" fill="#fff"/>
    <path id="Path_11144" data-name="Path 11144" d="M626.752,202.185a.39.39,0,0,0-.334-.447l-.106-.016a.394.394,0,0,0-.112.781l.106.016A.39.39,0,0,0,626.752,202.185Z" transform="translate(-285.641 -0.401)" fill="#fff"/>
    <path id="Path_11145" data-name="Path 11145" d="M634.074,203.693a.39.39,0,0,0-.284-.48l-.1-.027a.394.394,0,0,0-.2.764l.1.027A.39.39,0,0,0,634.074,203.693Z" transform="translate(-290.113 -1.289)" fill="#fff"/>
    <path id="Path_11146" data-name="Path 11146" d="M641.167,205.97a.39.39,0,0,0-.23-.508l-.1-.038a.394.394,0,0,0-.277.738l.1.038A.389.389,0,0,0,641.167,205.97Z" transform="translate(-294.45 -2.646)" fill="#fff"/>
    <path id="Path_11147" data-name="Path 11147" d="M648,209.007a.391.391,0,0,0-.175-.53l-.1-.048a.394.394,0,0,0-.354.7l.1.048A.389.389,0,0,0,648,209.007Z" transform="translate(-298.634 -4.469)" fill="#fff"/>
    <path id="Path_11148" data-name="Path 11148" d="M654.473,212.763a.39.39,0,0,0-.117-.545l-.09-.059a.394.394,0,0,0-.427.663l.09.058A.389.389,0,0,0,654.473,212.763Z" transform="translate(-302.597 -6.732)" fill="#fff"/>
    <path id="Path_11149" data-name="Path 11149" d="M660.5,217.188a.391.391,0,0,0-.058-.555l-.083-.067a.394.394,0,1,0-.5.613l.083.067A.389.389,0,0,0,660.5,217.188Z" transform="translate(-306.291 -9.405)" fill="#fff"/>
    <path id="Path_11150" data-name="Path 11150" d="M666.006,222.214a.391.391,0,0,0,0-.558l-.076-.076a.394.394,0,1,0-.558.557l.076.076A.389.389,0,0,0,666.006,222.214Z" transform="translate(-309.674 -12.447)" fill="#fff"/>
    <path id="Path_11151" data-name="Path 11151" d="M670.968,227.818a.39.39,0,0,0,.06-.554l-.067-.084a.394.394,0,0,0-.614.494l.067.084A.389.389,0,0,0,670.968,227.818Z" transform="translate(-312.725 -15.843)" fill="#fff"/>
    <path id="Path_11152" data-name="Path 11152" d="M675.3,233.912a.392.392,0,0,0,.119-.545l-.059-.09a.394.394,0,1,0-.663.426l.058.09A.39.39,0,0,0,675.3,233.912Z" transform="translate(-315.394 -19.542)" fill="#fff"/>
    <path id="Path_11153" data-name="Path 11153" d="M678.951,240.419a.39.39,0,0,0,.176-.529l-.048-.1a.394.394,0,1,0-.7.353l.048.1A.39.39,0,0,0,678.951,240.419Z" transform="translate(-317.65 -23.495)" fill="#fff"/>
    <path id="Path_11154" data-name="Path 11154" d="M681.893,247.306a.391.391,0,0,0,.232-.507l-.038-.1a.394.394,0,1,0-.738.275l.037.1A.39.39,0,0,0,681.893,247.306Z" transform="translate(-319.474 -27.682)" fill="#fff"/>
    <path id="Path_11155" data-name="Path 11155" d="M684.068,254.441a.39.39,0,0,0,.285-.479l-.026-.1a.394.394,0,1,0-.763.193l.026.1A.39.39,0,0,0,684.068,254.441Z" transform="translate(-320.832 -32.025)" fill="#fff"/>
    <path id="Path_11156" data-name="Path 11156" d="M685.472,261.8a.39.39,0,0,0,.335-.446l-.015-.106a.394.394,0,1,0-.78.11l.015.106A.39.39,0,0,0,685.472,261.8Z" transform="translate(-321.721 -36.506)" fill="#fff"/>
    <path id="Path_11157" data-name="Path 11157" d="M686.082,269.26a.389.389,0,0,0,.38-.407l0-.108a.394.394,0,1,0-.787.027l0,.107A.389.389,0,0,0,686.082,269.26Z" transform="translate(-322.125 -41.056)" fill="#fff"/>
    <path id="Path_11158" data-name="Path 11158" d="M685.89,276.721a.39.39,0,0,0,.421-.365l.007-.107a.394.394,0,1,0-.785-.057l-.008.107A.39.39,0,0,0,685.89,276.721Z" transform="translate(-322.036 -45.608)" fill="#fff"/>
    <path id="Path_11159" data-name="Path 11159" d="M684.9,284.151a.39.39,0,0,0,.457-.318l.019-.106a.394.394,0,1,0-.775-.14l-.019.106A.39.39,0,0,0,684.9,284.151Z" transform="translate(-321.458 -50.144)" fill="#fff"/>
    <path id="Path_11160" data-name="Path 11160" d="M683.125,291.415a.39.39,0,0,0,.489-.267l.03-.1a.394.394,0,1,0-.755-.223l-.03.1A.39.39,0,0,0,683.125,291.415Z" transform="translate(-320.399 -54.583)" fill="#fff"/>
    <path id="Path_11161" data-name="Path 11161" d="M680.574,298.458a.389.389,0,0,0,.515-.213l.041-.1a.394.394,0,1,0-.727-.3l-.042.1A.391.391,0,0,0,680.574,298.458Z" transform="translate(-318.867 -58.891)" fill="#fff"/>
    <path id="Path_11162" data-name="Path 11162" d="M677.291,305.172a.389.389,0,0,0,.534-.156l.052-.094a.394.394,0,1,0-.69-.379l-.052.094A.39.39,0,0,0,677.291,305.172Z" transform="translate(-316.888 -63.002)" fill="#fff"/>
    <path id="Path_11163" data-name="Path 11163" d="M673.306,311.5a.39.39,0,0,0,.548-.1l.062-.088a.394.394,0,1,0-.646-.451l-.061.088A.391.391,0,0,0,673.306,311.5Z" transform="translate(-314.479 -66.881)" fill="#fff"/>
    <path id="Path_11164" data-name="Path 11164" d="M668.674,317.374a.389.389,0,0,0,.555-.039l.071-.081a.394.394,0,0,0-.594-.517l-.071.081A.391.391,0,0,0,668.674,317.374Z" transform="translate(-311.673 -70.483)" fill="#fff"/>
    <path id="Path_11165" data-name="Path 11165" d="M663.435,322.733a.389.389,0,0,0,.556.02l.079-.073a.394.394,0,1,0-.537-.578l-.078.073A.391.391,0,0,0,663.435,322.733Z" transform="translate(-308.495 -73.774)" fill="#fff"/>
    <path id="Path_11166" data-name="Path 11166" d="M657.676,327.488a.389.389,0,0,0,.551.08l.086-.064a.394.394,0,0,0-.472-.632l-.086.064A.391.391,0,0,0,657.676,327.488Z" transform="translate(-304.998 -76.7)" fill="#fff"/>
    <path id="Path_11167" data-name="Path 11167" d="M651.425,331.617a.389.389,0,0,0,.539.138l.092-.055a.395.395,0,0,0-.4-.679l-.092.055A.391.391,0,0,0,651.425,331.617Z" transform="translate(-301.2 -79.246)" fill="#fff"/>
    <path id="Path_11168" data-name="Path 11168" d="M644.783,335.046a.389.389,0,0,0,.522.195l.1-.044a.394.394,0,0,0-.327-.718l-.1.044A.39.39,0,0,0,644.783,335.046Z" transform="translate(-297.16 -81.367)" fill="#fff"/>
    <path id="Path_11169" data-name="Path 11169" d="M637.8,337.745a.389.389,0,0,0,.5.25l.1-.034a.394.394,0,0,0-.248-.748l-.1.034A.39.39,0,0,0,637.8,337.745Z" transform="translate(-292.911 -83.044)" fill="#fff"/>
    <path id="Path_11170" data-name="Path 11170" d="M630.593,339.671a.39.39,0,0,0,.468.3l.1-.022a.395.395,0,0,0-.166-.772l-.1.023A.39.39,0,0,0,630.593,339.671Z" transform="translate(-288.52 -84.25)" fill="#fff"/>
    <path id="Path_11171" data-name="Path 11171" d="M623.216,340.813a.39.39,0,0,0,.433.351l.107-.011a.394.394,0,0,0-.082-.784l-.107.011A.39.39,0,0,0,623.216,340.813Z" transform="translate(-284.025 -84.98)" fill="#fff"/>
    <path id="Path_11172" data-name="Path 11172" d="M615.734,341.156a.391.391,0,0,0,.387.4l.108,0a.394.394,0,0,0,.013-.789l-.108,0A.39.39,0,0,0,615.734,341.156Z" transform="translate(-279.462 -85.224)" fill="#fff"/>
    <path id="Path_11173" data-name="Path 11173" d="M608.289,340.706a.39.39,0,0,0,.349.434l.107.011a.394.394,0,0,0,.084-.784l-.107-.012A.39.39,0,0,0,608.289,340.706Z" transform="translate(-274.919 -84.971)" fill="#fff"/>
    <path id="Path_11174" data-name="Path 11174" d="M600.933,339.459a.39.39,0,0,0,.3.469l.1.023a.394.394,0,0,0,.167-.771l-.1-.023A.39.39,0,0,0,600.933,339.459Z" transform="translate(-270.427 -84.236)" fill="#fff"/>
    <path id="Path_11175" data-name="Path 11175" d="M593.759,337.427a.39.39,0,0,0,.249.5l.1.034a.394.394,0,0,0,.249-.748l-.1-.034A.39.39,0,0,0,593.759,337.427Z" transform="translate(-266.044 -83.021)" fill="#fff"/>
    <path id="Path_11176" data-name="Path 11176" d="M586.824,334.626a.391.391,0,0,0,.194.523l.1.044a.394.394,0,0,0,.328-.717l-.1-.044A.39.39,0,0,0,586.824,334.626Z" transform="translate(-261.803 -81.337)" fill="#fff"/>
    <path id="Path_11177" data-name="Path 11177" d="M580.237,331.1a.39.39,0,0,0,.137.541l.092.055a.395.395,0,0,0,.4-.679l-.092-.055A.39.39,0,0,0,580.237,331.1Z" transform="translate(-257.773 -79.208)" fill="#fff"/>
    <path id="Path_11178" data-name="Path 11178" d="M574.056,326.881a.39.39,0,0,0,.078.552l.086.065a.394.394,0,1,0,.473-.631l-.086-.064A.389.389,0,0,0,574.056,326.881Z" transform="translate(-253.988 -76.656)" fill="#fff"/>
    <path id="Path_11179" data-name="Path 11179" d="M568.379,322.045a.391.391,0,0,0,.019.558l.078.073a.394.394,0,1,0,.537-.576l-.078-.074A.389.389,0,0,0,568.379,322.045Z" transform="translate(-250.508 -73.726)" fill="#fff"/>
    <path id="Path_11180" data-name="Path 11180" d="M563.23,316.615a.391.391,0,0,0-.039.556l.07.082a.394.394,0,1,0,.6-.517l-.07-.081A.389.389,0,0,0,563.23,316.615Z" transform="translate(-247.349 -70.431)" fill="#fff"/>
    <path id="Path_11181" data-name="Path 11181" d="M558.694,310.676a.39.39,0,0,0-.1.549l.061.089a.394.394,0,1,0,.647-.45l-.061-.089A.389.389,0,0,0,558.694,310.676Z" transform="translate(-244.562 -66.824)" fill="#fff"/>
    <path id="Path_11182" data-name="Path 11182" d="M554.818,304.29a.391.391,0,0,0-.157.535l.052.094a.394.394,0,1,0,.691-.378l-.052-.094A.389.389,0,0,0,554.818,304.29Z" transform="translate(-242.175 -62.942)" fill="#fff"/>
    <path id="Path_11183" data-name="Path 11183" d="M551.642,297.516a.391.391,0,0,0-.213.515l.041.1a.394.394,0,1,0,.727-.3l-.041-.1A.39.39,0,0,0,551.642,297.516Z" transform="translate(-240.215 -58.821)" fill="#fff"/>
    <path id="Path_11184" data-name="Path 11184" d="M549.217,290.449a.389.389,0,0,0-.267.489l.03.1a.394.394,0,1,0,.755-.222l-.03-.1A.389.389,0,0,0,549.217,290.449Z" transform="translate(-238.712 -54.518)" fill="#fff"/>
    <path id="Path_11185" data-name="Path 11185" d="M547.564,283.161a.39.39,0,0,0-.318.457l.019.106a.394.394,0,1,0,.775-.139l-.019-.106A.39.39,0,0,0,547.564,283.161Z" transform="translate(-237.678 -50.078)" fill="#fff"/>
    <path id="Path_11186" data-name="Path 11186" d="M546.7,275.716a.39.39,0,0,0-.365.421l.007.107a.394.394,0,1,0,.786-.055l-.007-.107A.39.39,0,0,0,546.7,275.716Z" transform="translate(-237.124 -45.54)" fill="#fff"/>
    <path id="Path_11187" data-name="Path 11187" d="M546.621,268.254a.389.389,0,0,0-.408.38l0,.107a.394.394,0,1,0,.787.028l0-.107A.39.39,0,0,0,546.621,268.254Z" transform="translate(-237.05 -40.988)" fill="#fff"/>
    <path id="Path_11188" data-name="Path 11188" d="M547.319,260.8a.389.389,0,0,0-.446.335l-.015.107a.394.394,0,1,0,.78.111l.015-.106A.39.39,0,0,0,547.319,260.8Z" transform="translate(-237.443 -36.439)" fill="#fff"/>
    <path id="Path_11189" data-name="Path 11189" d="M548.809,253.466a.389.389,0,0,0-.478.285l-.027.1a.394.394,0,1,0,.763.195l.027-.1A.391.391,0,0,0,548.809,253.466Z" transform="translate(-238.32 -31.96)" fill="#fff"/>
    <path id="Path_11190" data-name="Path 11190" d="M551.076,246.363a.389.389,0,0,0-.507.232l-.038.1a.394.394,0,1,0,.738.276l.038-.1A.391.391,0,0,0,551.076,246.363Z" transform="translate(-239.671 -27.619)" fill="#fff"/>
    <path id="Path_11191" data-name="Path 11191" d="M554.1,239.519a.389.389,0,0,0-.528.176l-.048.1a.394.394,0,1,0,.7.354l.048-.1A.391.391,0,0,0,554.1,239.519Z" transform="translate(-241.487 -23.433)" fill="#fff"/>
    <path id="Path_11192" data-name="Path 11192" d="M557.832,233.054a.389.389,0,0,0-.544.118l-.059.09a.394.394,0,1,0,.662.427l.058-.09A.39.39,0,0,0,557.832,233.054Z" transform="translate(-243.735 -19.477)" fill="#fff"/>
    <path id="Path_11193" data-name="Path 11193" d="M562.231,227.033a.389.389,0,0,0-.554.06l-.067.084a.394.394,0,1,0,.613.5l.067-.084A.391.391,0,0,0,562.231,227.033Z" transform="translate(-246.392 -15.789)" fill="#fff"/>
    <path id="Path_11194" data-name="Path 11194" d="M567.258,221.5a.389.389,0,0,0-.557,0l-.076.076a.394.394,0,0,0,.556.557l.076-.076A.39.39,0,0,0,567.258,221.5Z" transform="translate(-249.435 -12.398)" fill="#fff"/>
    <path id="Path_11195" data-name="Path 11195" d="M572.848,216.535a.389.389,0,0,0-.554-.06l-.084.068a.394.394,0,0,0,.495.614l.084-.067A.39.39,0,0,0,572.848,216.535Z" transform="translate(-252.823 -9.348)" fill="#fff"/>
    <path id="Path_11196" data-name="Path 11196" d="M562.978,284.549h.26v-.613h.384c.239,0,.3.121.3.394a.417.417,0,0,0,.039.219h.279a.675.675,0,0,1-.081-.392c0-.236-.131-.3-.221-.315v0a.361.361,0,0,0,.245-.375c0-.252-.167-.4-.491-.4h-.711Zm.26-1.276h.423c.136,0,.259.037.259.227,0,.156-.09.238-.255.238h-.427Z" transform="translate(-247.279 -50.021)" fill="#fff"/>
    <path id="Path_11197" data-name="Path 11197" d="M563.665,282.625h-.14a1.221,1.221,0,1,1-.357-.863,1.217,1.217,0,0,1,.357.863h.28a1.5,1.5,0,1,0-1.5,1.5,1.5,1.5,0,0,0,1.5-1.5Z" transform="translate(-245.953 -48.839)" fill="#fff"/>
    <path id="Path_11198" data-name="Path 11198" d="M610.377,265.389v-.3c-.667-.073-.731-.1-.731-.828V262.21c0-1.019-.551-1.6-1.41-1.6a1.946,1.946,0,0,0-.952.319c-.278.19-.516.336-.731.493v-.845a5.071,5.071,0,0,1-1.451.437v.274c.6.09.679.135.679.817v2.161c0,.688-.069.75-.813.823v.3h2.339v-.3c-.7-.073-.754-.1-.754-.828v-2.447a2.061,2.061,0,0,1,1.283-.594c.789,0,1.044.5,1.044,1.249v1.747c0,.716-.087.8-.766.873v.3Zm-5.977,0v-.3c-.725-.05-.8-.123-.8-.828v-3.684a6.137,6.137,0,0,1-1.5.437v.274c.7.09.725.135.725.778v2.194c0,.705-.087.778-.8.828v.3Zm-1.254-5.727a.53.53,0,0,0,.528-.521.514.514,0,0,0-.517-.537.535.535,0,0,0-.551.537A.548.548,0,0,0,603.146,259.662Zm-6.11,1.361a1,1,0,0,1,1.01,1.041c0,.156-.064.218-.278.229-.679.017-1.317.028-1.962.017.2-.84.7-1.287,1.219-1.287Zm1.648,3.252a1.917,1.917,0,0,1-1.271.543c-.754,0-1.643-.6-1.648-2.049,1.347-.039,2.757-.145,2.931-.168.192-.05.232-.123.232-.364a1.667,1.667,0,0,0-1.648-1.629h-.011a2.253,2.253,0,0,0-1.579.767,2.722,2.722,0,0,0-.714,1.875,2.124,2.124,0,0,0,2.113,2.261,2.552,2.552,0,0,0,1.787-.974Zm-5.948.191a2.335,2.335,0,0,1-1.143.381,1.683,1.683,0,0,1-1.538-1.887c0-1.5.946-1.926,1.5-1.926a1.529,1.529,0,0,1,1.184.532Zm1.648.353-.377-.045c-.395-.028-.482-.073-.482-.61v-6.32a12.189,12.189,0,0,1-1.66.386v.28c.83.039.87.073.87.778v1.467a2.02,2.02,0,0,0-.778-.145,2.782,2.782,0,0,0-2.809,2.642,2.143,2.143,0,0,0,2,2.261,2.294,2.294,0,0,0,.906-.319l.679-.375v.694a10.375,10.375,0,0,1,1.648-.392Zm-7.451-.353a1.871,1.871,0,0,1-.969.425.8.8,0,0,1-.819-.8c0-.4.244-.6.7-.789.25-.106.842-.353,1.091-.47Zm1.66.526-.122-.3a1.052,1.052,0,0,1-.4.123c-.209,0-.389-.168-.389-.644v-2.01a1.516,1.516,0,0,0-.487-1.265,1.386,1.386,0,0,0-.882-.291,4.65,4.65,0,0,0-1.619.739c-.2.145-.366.269-.366.425a.514.514,0,0,0,.453.448.283.283,0,0,0,.313-.229,1.951,1.951,0,0,1,.337-.689.687.687,0,0,1,.528-.218c.557,0,.969.437.969,1.221v.151a9.72,9.72,0,0,1-1.712.689,1.083,1.083,0,0,0-.917,1.058,1.3,1.3,0,0,0,1.294,1.31,3.355,3.355,0,0,0,1.352-.672.965.965,0,0,0,.273.487.843.843,0,0,0,.476.185Zm-5.043.4v-.3c-.644-.05-.731-.1-.731-.823v-2.032c0-1.041-.574-1.623-1.4-1.623a1.672,1.672,0,0,0-.847.257c-.273.179-.592.375-.929.638a1.326,1.326,0,0,0-1.219-.9,1.546,1.546,0,0,0-.882.269,7.335,7.335,0,0,0-.841.582v-.884a5.653,5.653,0,0,1-1.474.437v.274c.668.09.7.123.7.817v2.161c0,.7-.11.773-.853.823v.3h2.275v-.3c-.551-.05-.65-.123-.65-.823v-2.441a2.345,2.345,0,0,1,1.294-.6c.7,0,.992.459.992,1.26v1.786c0,.7-.122.773-.829.823v.3h2.35v-.3c-.638-.05-.743-.123-.743-.8v-2.015a2.246,2.246,0,0,0-.035-.448,2.254,2.254,0,0,1,1.312-.6c.749,0,.992.532.992,1.26v1.758c0,.739-.128.8-.8.851v.3Z" transform="translate(-254.657 -34.638)" fill="#fff"/>
    <path id="Path_11199" data-name="Path 11199" d="M611.458,284.055h-3.713v.484c1.17.1,1.309.3,1.064.95-.468,1.165-1.34,3.074-1.936,4.328l-1.894-4.346c-.255-.618-.159-.833.777-.932v-.484H601.8v.484c1.128.1,1.351.368,1.776,1.282.659,1.317,1.489,3.306,2.276,5.125a1.223,1.223,0,0,1,.021.78,12.614,12.614,0,0,1-.649,1.219,3.7,3.7,0,0,1-1.467,1.5c-.33.179-.51.367-.51.609,0,.386.553.807,1.159.807a.634.634,0,0,0,.659-.4,30.106,30.106,0,0,1,2.052-4.579c1.4-2.823,2.011-4.22,2.51-5.107a1.835,1.835,0,0,1,1.83-1.228Zm-9.924,7.455v-.484c-1.34-.08-1.521-.2-1.521-1.317V279.431a16.1,16.1,0,0,1-2.861.618v.448c1.329.063,1.468.117,1.468,1.3v7.912c0,1.12-.2,1.237-1.51,1.317v.484Zm-7.986-1.478a3.681,3.681,0,0,1-1.777.681,1.4,1.4,0,0,1-1.5-1.281c0-.636.446-.968,1.276-1.263.457-.17,1.542-.564,2-.753Zm3.042.842-.224-.475a2.118,2.118,0,0,1-.723.2c-.383,0-.713-.269-.713-1.031v-3.216a2.276,2.276,0,0,0-.893-2.025,2.794,2.794,0,0,0-1.617-.466,9.113,9.113,0,0,0-2.967,1.183c-.372.233-.67.43-.67.681,0,.394.521.716.83.716s.521-.116.574-.367a2.975,2.975,0,0,1,.617-1.1,1.345,1.345,0,0,1,.968-.35,1.748,1.748,0,0,1,1.777,1.953v.242a19.352,19.352,0,0,1-3.138,1.1c-1.148.3-1.68.9-1.68,1.693a2.233,2.233,0,0,0,2.372,2.1,6.549,6.549,0,0,0,2.478-1.075,1.5,1.5,0,0,0,.5.78,1.677,1.677,0,0,0,.872.3Zm-9.04.018-.2-.448a3.325,3.325,0,0,1-1.3.3c-.521,0-1.191-.269-1.191-1.63v-4.364h2.233a.453.453,0,0,0,.117-.7h-2.35v-2.276l-.3-.036-1.106,1.111v1.2h-.968l-.553.5.085.2h1.436v4.955a1.751,1.751,0,0,0,1.9,2,2.368,2.368,0,0,0,.925-.233Zm-6,.618v-.528c-1.659-.09-1.851-.152-1.851-1.622v-6.747c0-1.434.192-1.5,1.851-1.613v-.52h-5.233V281c1.68.117,1.861.179,1.861,1.613v6.747c0,1.451-.181,1.532-1.861,1.622v.528Z" transform="translate(-255.417 -47.807)" fill="#fff"/>
  </g>
</svg>
