<svg xmlns="http://www.w3.org/2000/svg" width="148.635" height="51.521" viewBox="0 0 148.635 51.521">
  <g id="Group_10809" data-name="Group 10809" transform="translate(341.35 768.175)">
    <path id="Path_11226" data-name="Path 11226" d="M-198.644-723.075c0-.489-.367-.672-1.146-.879-.681-.183-1.429-.474-1.429-1.4a1.412,1.412,0,0,1,1.6-1.346,2.809,2.809,0,0,1,1.507.421l-.23.565a2.394,2.394,0,0,0-1.269-.4c-.688,0-.971.314-.971.71,0,.482.4.65,1.162.856.7.184,1.407.522,1.407,1.423a1.5,1.5,0,0,1-1.681,1.428,3.084,3.084,0,0,1-1.6-.449l.215-.59a2.448,2.448,0,0,0,1.4.458c.6,0,1.039-.328,1.039-.8" fill="#fff"/>
    <path id="Path_11227" data-name="Path 11227" d="M-275.269-740.166c-2.807,0-4.386-2.924-4.386-8.012,0-4.854,1.579-7.719,4.329-7.719,3.625,0,4.736,3.45,4.736,8.3,0,4.678-1.872,7.427-4.679,7.427m13.685-12.456L-261-755.6l-7.427,1.344a12.061,12.061,0,0,0-6.842-2.163c-5.672,0-10.175,3.8-10.175,8.713a7.675,7.675,0,0,0,5.322,7.252v.1c-3.159.654-6.725,2.67-6.725,5.613a4.1,4.1,0,0,0,.483,2.078,6.933,6.933,0,0,0,5.135,2.97c-2.965,1.344-6.145,3.643-6.145,6.721,0,4.026,3.452,6.318,9.942,6.318a18.694,18.694,0,0,0,8.881-2.062l-.6-.418-.925.418a9.989,9.989,0,0,1-4.2.886c-5.029,0-8.6-2.725-8.6-6.628a6.34,6.34,0,0,1,1.789-4.423c.5-.5,2.131-1.917,7.9-1.917h10.934c-.638-3.059-3.623-5.166-8.521-5.166-2.106,0-5.323.156-6.96.156-3.216,0-4.855-.11-4.855-1.676,0-1.356,1.347-2.3,3.394-2.661a19.888,19.888,0,0,0,3.742.447c5.907,0,10.409-3.743,10.409-8.48a7.2,7.2,0,0,0-2.339-5.145l.058-.118" fill="#fff"/>
    <path id="Path_11228" data-name="Path 11228" d="M-333.328-731.142l2.75-.234c2.047-.176,2.808-.585,2.808-.936v-34.516h-1.412c-5.5.351-9.3,5.44-11.35,9.418l-.409.761h-.409l1.931-10.705h30.26l1.345,10.705h-.351l-.35-.761c-2.283-5.031-5.968-9.243-11.234-9.418h-1.468v34.692c0,.408.35.525,3.392.819l2.106.175.176.351H-333.5" fill="#fff"/>
    <path id="Path_11229" data-name="Path 11229" d="M-297.61-734.828l-.058-.117c-2.281,2.458-4.738,4.68-7.722,4.68a5.813,5.813,0,0,1-6.026-5.5c0-3.919,2.925-6.844,14.1-9.478l.059-1.929c.175-5.382-2.165-7.84-5.851-7.84-2.1,0-3.976.995-3.976,1.638,0,.409,1.636,1.756,1.636,3.334a2.957,2.957,0,0,1-3.1,2.808c-1.756,0-3.042-1.053-3.042-2.631,0-3.452,7.488-6.611,12.226-6.611,5.967,0,8.306,2.106,7.956,9.125l-.584,11.057c-.117,2.106.76,3.16,2.105,3.16.936,0,2.118-.985,3.414-3.218L-286.81-735c-1.171,1.463-3.6,4.789-6.412,4.789-2.574,0-4.036-1.7-4.388-4.621m-.058-.7.351-9.126c-6.9,1.579-8.365,3.919-8.365,6.845,0,2.515,1.7,4.328,3.686,4.328a5.764,5.764,0,0,0,4.328-2.047" fill="#fff"/>
    <path id="Path_11230" data-name="Path 11230" d="M-260.109-731.143l.936-.058c1.814-.117,2.458-.175,2.458-.878v-16.614c0-3.569-.411-4.1-2.4-4.563l-1.345-.292.058-.235,9.477-2.574v24.4c0,.469.352.527,2.926.761l.76.058.176.351h-13.222ZM-258-764.431a3.677,3.677,0,0,1,3.744-3.744,3.715,3.715,0,0,1,3.744,3.744,3.693,3.693,0,0,1-3.744,3.628A3.654,3.654,0,0,1-258-764.431" fill="#fff"/>
    <path id="Path_11231" data-name="Path 11231" d="M-246.419-731.142l.936-.058c1.814-.117,2.456-.176,2.456-.878v-16.556c0-3.627-.409-4.154-2.4-4.622l-1.346-.292.06-.235,9.535-2.573-.175,4.971.175.06c2.4-2.049,5.85-5.149,9.946-5.149a6,6,0,0,1,4.563,1.814c1.345,1.286,1.812,3.568,1.812,6.143v16.5c0,.352.118.527,3.043.82l.7.058.175.351H-230.1l.176-.351,1.052-.058c2.048-.117,2.223-.411,2.223-.878V-747.7c0-3.509-1.7-4.971-4.972-4.971a8.3,8.3,0,0,0-5.617,2.106v18.6c0,.468.292.585,2.691.761l.879.058.116.351H-246.6" fill="#fff"/>
    <path id="Path_11232" data-name="Path 11232" d="M-203.245-734.828l-.058-.117c-2.282,2.458-4.738,4.68-7.722,4.68a5.813,5.813,0,0,1-6.026-5.5c0-3.919,2.925-6.844,14.1-9.478l.057-1.929c.176-5.382-2.163-7.84-5.85-7.84-2.1,0-3.978.995-3.978,1.638,0,.409,1.638,1.756,1.638,3.334a2.958,2.958,0,0,1-3.1,2.808c-1.755,0-3.041-1.053-3.041-2.631,0-3.452,7.488-6.611,12.226-6.611,5.967,0,8.308,2.106,7.957,9.125l-.584,11.057c-.118,2.106.759,3.16,2.1,3.16a3.844,3.844,0,0,0,2.457-1.58l.35.175c-1.169,1.463-3.334,4.329-6.142,4.329-2.574,0-4.037-1.7-4.388-4.621m-.058-.7.352-9.126c-6.9,1.579-8.367,3.919-8.367,6.845,0,2.515,1.7,4.328,3.686,4.328a5.763,5.763,0,0,0,4.329-2.047" fill="#fff"/>
  </g>
</svg>
