<svg xmlns="http://www.w3.org/2000/svg" width="194.922" height="111.355" viewBox="0 0 194.922 111.355">
  <g id="Group_10810" data-name="Group 10810" transform="translate(-1325.829 -601.198)">
    <g id="Group_10805" data-name="Group 10805">
      <path id="Path_11205" data-name="Path 11205" d="M1452.156,653.894v57.731h-57.732V653.894h57.732m.928-.929H1393.5v59.588h59.588V652.965Z" fill="#fff"/>
      <rect id="Rectangle_2455" data-name="Rectangle 2455" width="2.126" height="2.126" rx="0.234" transform="translate(1400.063 678.157)" fill="#fff"/>
      <path id="Path_11206" data-name="Path 11206" d="M1441.517,683.789h-3.728a.116.116,0,0,1-.1-.17l1.867-3.664a.117.117,0,0,1,.209,0l1.861,3.664a.117.117,0,0,1-.1.17Zm4.973,3.235-4.574-8.745a.237.237,0,0,0-.208-.126h-4.077a.233.233,0,0,0-.207.125l-4.082,7.7a.117.117,0,0,1-.177.036l-3.856-3.12a.235.235,0,0,1-.011-.355l4.3-3.977a.234.234,0,0,0-.159-.406h-2.866a.773.773,0,0,0-.527.207l-3.365,3.234a.116.116,0,0,1-.08.031h-.986a.117.117,0,0,1-.118-.117v-3.114a.233.233,0,0,0-.234-.234h-2.359a.234.234,0,0,0-.235.234v8.737a.235.235,0,0,0,.235.235h2.359a.234.234,0,0,0,.234-.235v-3.254a.118.118,0,0,1,.118-.117h.948a.117.117,0,0,1,.076.028l3.851,3.4a.758.758,0,0,0,.494.183h4.68a.233.233,0,0,0,.209-.128l.692-1.366a.118.118,0,0,1,.1-.065h5.951a.116.116,0,0,1,.1.065l.692,1.366a.234.234,0,0,0,.209.128h2.655A.234.234,0,0,0,1446.49,687.024Z" fill="#fff" fill-rule="evenodd"/>
      <path id="Path_11207" data-name="Path 11207" d="M1415.511,680.283h6.1a.234.234,0,0,0,.234-.234v-1.658a.234.234,0,0,0-.234-.234h-18.627a.235.235,0,0,0-.235.234v1.658a.235.235,0,0,0,.235.234h2.252a.117.117,0,0,1,.117.117v6.73a.234.234,0,0,0,.234.234h2.351a.234.234,0,0,0,.234-.234V680.4a.118.118,0,0,1,.117-.117h4.171a.117.117,0,0,1,.117.117v6.73a.235.235,0,0,0,.235.234h8.8a.234.234,0,0,0,.234-.234v-1.769a.235.235,0,0,0-.234-.235h-6.1a.117.117,0,0,1-.117-.117v-1.166a.117.117,0,0,1,.117-.117h4.971a.234.234,0,0,0,.234-.234v-1.546a.234.234,0,0,0-.234-.234h-4.971a.117.117,0,0,1-.117-.117V680.4A.117.117,0,0,1,1415.511,680.283Z" fill="#fff" fill-rule="evenodd"/>
    </g>
    <g id="Group_10807" data-name="Group 10807">
      <g id="Group_10806" data-name="Group 10806">
        <path id="Path_11208" data-name="Path 11208" d="M1338.232,630.608a17.424,17.424,0,0,1-7.211-1.527,11.623,11.623,0,0,1-5.192-4.3l2.96-2.255a10.8,10.8,0,0,0,4.3,3.218,13.443,13.443,0,0,0,5.285,1.1,9.045,9.045,0,0,0,4.933-1.225,3.675,3.675,0,0,0,1.926-3.2,2.831,2.831,0,0,0-.469-1.6,4.328,4.328,0,0,0-1.055-1.131,7.273,7.273,0,0,0-1.854-.848,21.444,21.444,0,0,0-2.072-.6l-2.413-.539-2.3-.512q-.688-.155-2.075-.577a13.123,13.123,0,0,1-2.067-.775q-.682-.352-1.668-.987a5.2,5.2,0,0,1-1.48-1.339,6.973,6.973,0,0,1-.846-1.715,6.728,6.728,0,0,1-.352-2.231,7.03,7.03,0,0,1,3.077-6.108,12.879,12.879,0,0,1,7.588-2.161,16.834,16.834,0,0,1,6.765,1.386,12.244,12.244,0,0,1,5.121,4.017l-2.913,2.49a9.8,9.8,0,0,0-3.97-3.1,12.566,12.566,0,0,0-5.191-1.127,8.2,8.2,0,0,0-4.463,1.128,3.461,3.461,0,0,0-1.786,3.057,2.923,2.923,0,0,0,.447,1.6,4.343,4.343,0,0,0,1.033,1.151,6.331,6.331,0,0,0,1.784.847,19.871,19.871,0,0,0,2.028.578l2.4.516,3.161.681a20.194,20.194,0,0,1,2.845.9,8.815,8.815,0,0,1,2.605,1.437,7.215,7.215,0,0,1,1.6,2.119,6.433,6.433,0,0,1,.7,3.038,7.33,7.33,0,0,1-3.195,6.319A13.409,13.409,0,0,1,1338.232,630.608Z" fill="#fff"/>
        <path id="Path_11209" data-name="Path 11209" d="M1378.26,601.856v3.806h-10.571v24.383h-4.369V605.662h-10.571v-3.806Z" fill="#fff"/>
        <path id="Path_11210" data-name="Path 11210" d="M1400.481,617.407q6.953,2.913,6.953,12.638h-4.322q0-5.4-2.842-8.41t-8.058-3.007h-4.275v11.417h-4.275V601.856h12.544q4.837,0,7.517,2.4a7.533,7.533,0,0,1,2.678,5.826,7.191,7.191,0,0,1-1.551,4.533A8.137,8.137,0,0,1,1400.481,617.407Zm-12.544-11.933v9.678h8.175a6.464,6.464,0,0,0,4.393-1.41,4.428,4.428,0,0,0,1.62-3.476,4.341,4.341,0,0,0-1.6-3.406,6.593,6.593,0,0,0-4.463-1.386Z" fill="#fff"/>
        <path id="Path_11211" data-name="Path 11211" d="M1437.243,626.568a16.127,16.127,0,0,1-21.564,0,15.475,15.475,0,0,1,.024-21.235,14.811,14.811,0,0,1,10.805-4.135,14.655,14.655,0,0,1,10.759,4.135,15.539,15.539,0,0,1-.024,21.235Zm-10.782.188a10.214,10.214,0,0,0,7.611-3.007,11.785,11.785,0,0,0,0-15.621,11.015,11.015,0,0,0-15.175,0,11.754,11.754,0,0,0,0,15.6A10.118,10.118,0,0,0,1426.461,626.756Z" fill="#fff"/>
        <path id="Path_11212" data-name="Path 11212" d="M1509.9,601.2a10.014,10.014,0,0,1,7.916,3.336q2.936,3.336,2.936,9.02v16.491h-4.322V613.6a9.752,9.752,0,0,0-1.809-6.225,5.987,5.987,0,0,0-4.956-2.278,6.624,6.624,0,0,0-5.286,2.4,9.152,9.152,0,0,0-2.043,6.154v16.4h-4.37v-16.4a9.339,9.339,0,0,0-1.973-6.178,6.4,6.4,0,0,0-5.168-2.372,6.134,6.134,0,0,0-5.027,2.325,9.614,9.614,0,0,0-1.879,6.225l-.047,16.4h-4.322v-16.4a12.978,12.978,0,0,1,3.077-9.044,10.346,10.346,0,0,1,8.057-3.406,11.209,11.209,0,0,1,5.849,1.527,8.278,8.278,0,0,1,3.594,4.158,8.673,8.673,0,0,1,3.782-4.158A11.806,11.806,0,0,1,1509.9,601.2Z" fill="#fff"/>
        <path id="Path_11213" data-name="Path 11213" d="M1466.866,601.856v15.853c-2.615-2.607-6.359-4.019-11.087-4.019h-4.135V601.851h-4.322V630.04h4.322V617.449h4.37a10.009,10.009,0,0,1,7.775,3.289c1.989,2.192,3.077,5.293,3.077,9.3h4.32l0,.005V601.856Z" fill="#fff"/>
      </g>
    </g>
  </g>
</svg>
