<svg xmlns="http://www.w3.org/2000/svg" width="167.675" height="34.667" viewBox="0 0 167.675 34.667">
  <g id="Group_9750" data-name="Group 9750" opacity="0.501">
    <g id="Group_9748" data-name="Group 9748" transform="translate(0 8.377)">
      <path id="Path_11079" data-name="Path 11079" d="M478.655-198.25a4.633,4.633,0,0,0-.97-1.287,5.566,5.566,0,0,0-1.584-.869,11.249,11.249,0,0,0-1.725-.546c-.458-.1-1.1-.236-1.921-.418-.634-.135-1.119-.243-1.456-.31a12.411,12.411,0,0,1-1.233-.35,3.733,3.733,0,0,1-1.078-.519,2.526,2.526,0,0,1-.634-.694,1.844,1.844,0,0,1-.27-.97,2.113,2.113,0,0,1,1.085-1.86,5.018,5.018,0,0,1,2.709-.681,7.7,7.7,0,0,1,3.154.681,5.9,5.9,0,0,1,2.406,1.887l1.772-1.516a7.514,7.514,0,0,0-3.107-2.44,10.263,10.263,0,0,0-4.111-.836,7.779,7.779,0,0,0-4.6,1.307,4.267,4.267,0,0,0-1.874,3.707,4.081,4.081,0,0,0,.216,1.355,4.31,4.31,0,0,0,.512,1.045,3.284,3.284,0,0,0,.9.815c.4.256.735.452,1.011.593a7.252,7.252,0,0,0,1.253.472c.559.175.984.29,1.26.35s.741.168,1.4.31,1.139.256,1.469.33.741.2,1.254.364a4.345,4.345,0,0,1,1.125.519,2.6,2.6,0,0,1,.64.681,1.752,1.752,0,0,1,.29.977,2.236,2.236,0,0,1-1.173,1.948,5.531,5.531,0,0,1-2.992.741,8.063,8.063,0,0,1-3.208-.674,6.6,6.6,0,0,1-2.615-1.948l-1.793,1.368a7.1,7.1,0,0,0,3.147,2.608,10.558,10.558,0,0,0,4.381.923,8.107,8.107,0,0,0,4.846-1.382,4.445,4.445,0,0,0,1.941-3.835A3.945,3.945,0,0,0,478.655-198.25Z" transform="translate(-464.765 209.04)" fill="#fff"/>
      <path id="Path_11080" data-name="Path 11080" d="M489.015-208.479v2.312h6.416v14.806h2.655v-14.806H504.5v-2.312Z" transform="translate(-472.672 208.877)" fill="#fff"/>
      <path id="Path_11081" data-name="Path 11081" d="M527.072-199.037a4.939,4.939,0,0,0,2.648-1.7,4.374,4.374,0,0,0,.944-2.75,4.593,4.593,0,0,0-1.624-3.538,6.619,6.619,0,0,0-4.569-1.456h-7.615v17.118h2.6V-198.3h2.595a6.43,6.43,0,0,1,4.893,1.826,7.166,7.166,0,0,1,1.725,5.108h2.622Q531.291-197.265,527.072-199.037Zm-2.655-1.368h-4.96v-5.877h4.933a4.012,4.012,0,0,1,2.709.842,2.636,2.636,0,0,1,.97,2.069,2.7,2.7,0,0,1-.984,2.109A3.931,3.931,0,0,1,524.417-200.405Z" transform="translate(-481.75 208.877)" fill="#fff"/>
      <path id="Path_11082" data-name="Path 11082" d="M557.57-206.555a8.875,8.875,0,0,0-6.53-2.514,8.971,8.971,0,0,0-6.557,2.514,8.616,8.616,0,0,0-2.568,6.443,8.631,8.631,0,0,0,2.554,6.443,8.917,8.917,0,0,0,6.544,2.514,8.918,8.918,0,0,0,6.544-2.514,8.631,8.631,0,0,0,2.554-6.443A8.672,8.672,0,0,0,557.57-206.555Zm-1.934,11.181a6.225,6.225,0,0,1-4.623,1.82,6.123,6.123,0,0,1-4.589-1.84,6.461,6.461,0,0,1-1.8-4.718,6.509,6.509,0,0,1,1.8-4.751,6.123,6.123,0,0,1,4.589-1.84,6.189,6.189,0,0,1,4.623,1.84,6.532,6.532,0,0,1,1.793,4.751A6.489,6.489,0,0,1,555.636-195.375Z" transform="translate(-489.921 209.069)" fill="#fff"/>
      <path id="Path_11083" data-name="Path 11083" d="M626.472-207.04a6.087,6.087,0,0,0-4.812-2.029,7.125,7.125,0,0,0-3.633.93,5.227,5.227,0,0,0-2.3,2.52,4.993,4.993,0,0,0-2.184-2.52,6.779,6.779,0,0,0-3.552-.93A6.253,6.253,0,0,0,605.109-207a7.88,7.88,0,0,0-1.873,5.493v9.954h2.628l.027-9.954a5.816,5.816,0,0,1,1.139-3.781,3.723,3.723,0,0,1,3.053-1.415,3.9,3.9,0,0,1,3.141,1.442,5.7,5.7,0,0,1,1.193,3.754v9.954h2.655v-9.954a5.555,5.555,0,0,1,1.24-3.74,4.028,4.028,0,0,1,3.208-1.456,3.644,3.644,0,0,1,3.012,1.388,5.919,5.919,0,0,1,1.1,3.774v9.988h2.622v-10.015A7.994,7.994,0,0,0,626.472-207.04Z" transform="translate(-509.915 209.069)" fill="#fff"/>
      <path id="Path_11084" data-name="Path 11084" d="M586.072-208.477v9.624a9.2,9.2,0,0,0-6.731-2.44h-2.51v-7.188h-2.624v17.113h2.624v-7.644h2.653a6.077,6.077,0,0,1,4.72,2,8.13,8.13,0,0,1,1.868,5.648H588.7v-17.111Z" transform="translate(-500.45 208.877)" fill="#fff"/>
    </g>
    <g id="Group_9749" data-name="Group 9749" transform="translate(133.008 0)">
      <path id="Path_11085" data-name="Path 11085" d="M690.464-203.646l-1.112-2.2a.071.071,0,0,0-.128,0l-1.119,2.2a.067.067,0,0,0,.061.1H690.4A.067.067,0,0,0,690.464-203.646Zm0,0-1.112-2.2a.071.071,0,0,0-.128,0l-1.119,2.2a.067.067,0,0,0,.061.1H690.4A.067.067,0,0,0,690.464-203.646ZM662.125-221.5v34.667h34.667V-221.5Zm4.664,15.709a.141.141,0,0,1-.142.135h-1a.137.137,0,0,1-.141-.135v-1a.138.138,0,0,1,.141-.142h1a.142.142,0,0,1,.142.142Zm11.8-.007a.138.138,0,0,1-.142.141h-3.659a.075.075,0,0,0-.074.074v.714a.075.075,0,0,0,.074.074h2.986a.142.142,0,0,1,.141.142v.923a.142.142,0,0,1-.141.141h-2.986a.075.075,0,0,0-.074.074v.7a.074.074,0,0,0,.074.067h3.659a.138.138,0,0,1,.142.142v1.065a.137.137,0,0,1-.142.135h-5.284a.137.137,0,0,1-.141-.135v-4.044a.074.074,0,0,0-.067-.074h-2.507a.075.075,0,0,0-.074.074v4.044a.135.135,0,0,1-.135.135h-1.415a.141.141,0,0,1-.142-.135v-4.044a.069.069,0,0,0-.067-.074H667.26a.142.142,0,0,1-.142-.141v-.991a.142.142,0,0,1,.142-.142h11.187a.138.138,0,0,1,.142.142Zm14.678,4.4h-1.6a.133.133,0,0,1-.121-.081l-.418-.822a.071.071,0,0,0-.061-.034h-3.579a.071.071,0,0,0-.061.034l-.418.822a.133.133,0,0,1-.121.081h-1.84v-.007h-.971a.424.424,0,0,1-.3-.108l-2.318-2.035a.048.048,0,0,0-.04-.02h-.573a.069.069,0,0,0-.067.074v1.954a.141.141,0,0,1-.141.135h-1.415a.137.137,0,0,1-.141-.135v-5.25a.138.138,0,0,1,.141-.142h1.415a.142.142,0,0,1,.141.142v1.867a.069.069,0,0,0,.067.074h.593a.061.061,0,0,0,.047-.02l2.022-1.941a.474.474,0,0,1,.317-.128h1.719a.147.147,0,0,1,.1.249l-2.588,2.386a.145.145,0,0,0,.007.216l2.318,1.874a.073.073,0,0,0,.108-.027l2.446-4.616a.145.145,0,0,1,.128-.074h2.446a.144.144,0,0,1,.128.074l2.743,5.25A.141.141,0,0,1,693.268-201.4Zm-3.916-4.455a.071.071,0,0,0-.128,0l-1.119,2.2a.067.067,0,0,0,.061.1H690.4a.067.067,0,0,0,.061-.1Z" transform="translate(-662.125 221.499)" fill="#fff" fill-rule="evenodd"/>
    </g>
  </g>
</svg>
