<svg id="Group_37" data-name="Group 37" xmlns="http://www.w3.org/2000/svg" width="21.275" height="21.061" viewBox="0 0 21.275 21.061">
  <path id="Path_65" data-name="Path 65" d="M-675.026,900.449l-.788.771-.241.175a4.657,4.657,0,0,1-1.049.57,4.887,4.887,0,0,1-1.21.3c-.037,0-.145.012-.318.012-1.176,0-5.412-.4-10.544-5.529-4.323-4.324-5.92-7.469-5.511-10.854a4.887,4.887,0,0,1,.3-1.214,4.686,4.686,0,0,1,.59-1.076l.083-.113.016-.047.833-.845a1.092,1.092,0,0,1,.773-.322.965.965,0,0,1,.69.28l3.309,3.309a.956.956,0,0,1,.281.71,1.094,1.094,0,0,1-.326.757l-2.031,2.029.429.77a17.229,17.229,0,0,0,3.017,4.167,17.211,17.211,0,0,0,4.154,3.009l.78.435,2.031-2.03a1.088,1.088,0,0,1,.774-.326.977.977,0,0,1,.694.281l3.3,3.306A1.047,1.047,0,0,1-675.026,900.449Z" transform="translate(694.749 -881.22)"/>
  <g id="Group_37-2" data-name="Group 37" transform="translate(9.315)">
    <path id="Path_66" data-name="Path 66" d="M-670.714,895.683a5.493,5.493,0,0,0-2.5-1.428l-.434-.117-.125.43a3.451,3.451,0,0,1-.163.444l-.235.5.538.14a4.068,4.068,0,0,1,1.881,1.064,4.072,4.072,0,0,1,1.041,1.784l.091.326.679.038c.07.009.138.016.2.021l.639.062-.15-.625a5.53,5.53,0,0,0-1.469-2.641Zm0,0" transform="translate(674.523 -887.506)"/>
    <path id="Path_67" data-name="Path 67" d="M-668.128,889.865a8.621,8.621,0,0,0-4.717-2.409l-.629-.105.1.628q.044.28.076.559l.041.333.334.065a7.117,7.117,0,0,1,3.76,1.966,7.141,7.141,0,0,1,2.07,4.323l.039.351.531.076c.086.007.174.007.294.007l.641.023-.051-.523a8.585,8.585,0,0,0-2.487-5.294Zm0,0" transform="translate(674.155 -883.908)"/>
    <path id="Path_68" data-name="Path 68" d="M-666.488,883.571a12.067,12.067,0,0,0-7.858-3.513l-.578-.036.1.569c.03.184.065.375.1.571l.07.345.349.021a10.6,10.6,0,0,1,6.78,3.077,10.622,10.622,0,0,1,3.063,6.7l.034.453.451-.028c.108,0,.214-.015.368-.028l.645-.051-.036-.459a12.075,12.075,0,0,0-3.489-7.623Zm0,0" transform="translate(674.924 -880.023)"/>
  </g>
</svg>
