<svg xmlns="http://www.w3.org/2000/svg" width="139.359" height="37.325" viewBox="0 0 139.359 37.325">
  <g id="Group_9759" data-name="Group 9759" transform="translate(0.707 0.707)" opacity="0.501">
    <path id="Subtraction_1" data-name="Subtraction 1" d="M18.059,36.118h0L0,18.059,18.059,0,36.118,18.059,18.059,36.118Zm0-28.619a10.558,10.558,0,1,0,7.466,3.092A10.49,10.49,0,0,0,18.059,7.5Z" transform="translate(0 0)" fill="#fff" stroke="rgba(0,0,0,0)" stroke-miterlimit="10" stroke-width="1"/>
    <g id="Group_9758" data-name="Group 9758" transform="translate(41.963 6.337)">
      <path id="Path_11100" data-name="Path 11100" d="M279.346,238.088a12.1,12.1,0,0,1,1.938-.164,12.78,12.78,0,0,1,1.993.164v16.188h6.8a8.2,8.2,0,0,1,.109.887q.027.424.027.805,0,.437-.027.86a8.157,8.157,0,0,1-.109.887H279.346Z" transform="translate(-279.346 -237.405)" fill="#fff"/>
      <path id="Path_11101" data-name="Path 11101" d="M331.489,261.811a11.545,11.545,0,0,1,3.876,0v7.48a7.913,7.913,0,0,0,.177,1.843,2.693,2.693,0,0,0,.546,1.146,2.008,2.008,0,0,0,.914.6,4.155,4.155,0,0,0,1.283.177,6.371,6.371,0,0,0,1.693-.191V261.811a11.611,11.611,0,0,1,1.911-.164,11.775,11.775,0,0,1,1.938.164v13.567a18.454,18.454,0,0,1-2.307.587,15.217,15.217,0,0,1-2.989.287,15.9,15.9,0,0,1-2.675-.219,5.227,5.227,0,0,1-2.252-.928,4.787,4.787,0,0,1-1.542-2.075,9.53,9.53,0,0,1-.573-3.631Z" transform="translate(-319.369 -255.614)" fill="#fff"/>
      <path id="Path_11102" data-name="Path 11102" d="M395.024,261.271a7.377,7.377,0,0,1,.764-.123,7.947,7.947,0,0,1,.846-.041,7.2,7.2,0,0,1,.819.041q.354.041.737.123a1.582,1.582,0,0,1,.15.4q.068.26.123.546t.1.56q.041.273.068.464a6.4,6.4,0,0,1,.655-.819,4.7,4.7,0,0,1,.887-.737,4.8,4.8,0,0,1,1.133-.532,4.466,4.466,0,0,1,1.392-.2,4.7,4.7,0,0,1,3.617,1.31,5.92,5.92,0,0,1,1.215,4.122v9.008a11.558,11.558,0,0,1-3.876,0v-7.971a4.64,4.64,0,0,0-.451-2.266,1.653,1.653,0,0,0-1.569-.792,3.566,3.566,0,0,0-.956.136,2.006,2.006,0,0,0-.887.533,2.858,2.858,0,0,0-.642,1.105,5.8,5.8,0,0,0-.246,1.856v7.4a11.561,11.561,0,0,1-3.876,0Z" transform="translate(-368.136 -255.074)" fill="#fff"/>
      <path id="Path_11103" data-name="Path 11103" d="M463.423,266.1a2.262,2.262,0,0,0-.218-1.065,1.636,1.636,0,0,0-.6-.642,2.507,2.507,0,0,0-.942-.314A8.618,8.618,0,0,0,460.42,264a9.651,9.651,0,0,0-3.139.573,7.325,7.325,0,0,1-.573-1.338,5.182,5.182,0,0,1-.191-1.5,14.492,14.492,0,0,1,2.4-.6,14.327,14.327,0,0,1,2.238-.191,6.616,6.616,0,0,1,4.436,1.365,5.449,5.449,0,0,1,1.6,4.368v8.189a22.614,22.614,0,0,1-2.32.573,15.844,15.844,0,0,1-3.085.273,12.326,12.326,0,0,1-2.552-.246,5.473,5.473,0,0,1-1.993-.819,3.854,3.854,0,0,1-1.283-1.474,4.913,4.913,0,0,1-.45-2.211,4.043,4.043,0,0,1,.56-2.2,4.317,4.317,0,0,1,1.447-1.42,6.4,6.4,0,0,1,1.979-.764,10.486,10.486,0,0,1,2.184-.232q.791,0,1.747.082Zm0,2.812q-.327-.054-.709-.1a6.518,6.518,0,0,0-.683-.041,4.029,4.029,0,0,0-2.115.478,1.673,1.673,0,0,0-.778,1.543,1.729,1.729,0,0,0,.3,1.092,1.784,1.784,0,0,0,.723.56,2.958,2.958,0,0,0,.9.219q.477.041.833.041a5,5,0,0,0,.819-.068c.273-.046.509-.086.709-.123Z" transform="translate(-414.559 -255.074)" fill="#fff"/>
      <path id="Path_11104" data-name="Path 11104" d="M515.636,242.014h-4.887a8.764,8.764,0,0,1-.163-1.72,8.48,8.48,0,0,1,.163-1.665h13.786a8.466,8.466,0,0,1,.164,1.665,8.75,8.75,0,0,1-.164,1.72h-4.886v16.242q-.492.054-.983.1t-.955.041q-.465,0-1-.027t-1.078-.109Z" transform="translate(-456.837 -237.947)" fill="#fff"/>
      <path id="Path_11105" data-name="Path 11105" d="M574.469,244.838H572.64a6.106,6.106,0,0,1-.123-.751,7.337,7.337,0,0,1-.041-.751,6.427,6.427,0,0,1,.163-1.447h5.623V256a11.637,11.637,0,0,1-1.911.164,11.477,11.477,0,0,1-1.883-.164Zm-.573-5.323a10.525,10.525,0,0,1-.163-1.829,10.854,10.854,0,0,1,.163-1.829q.464-.082,1-.123t.969-.041q.464,0,1.01.041t1.01.123a8.089,8.089,0,0,1,.109.915q.026.45.027.914,0,.437-.027.9a8.058,8.058,0,0,1-.109.928,8.124,8.124,0,0,1-1,.109q-.532.028-1,.027-.437,0-.983-.027A8.15,8.15,0,0,1,573.9,239.515Z" transform="translate(-504.342 -235.693)" fill="#fff"/>
      <path id="Path_11106" data-name="Path 11106" d="M608.646,236.679a11.765,11.765,0,0,1,1.938-.164,11.614,11.614,0,0,1,1.911.164V251.01a7.8,7.8,0,0,0,.1,1.365,2.015,2.015,0,0,0,.3.805,1.047,1.047,0,0,0,.533.4,2.61,2.61,0,0,0,.819.109,4.56,4.56,0,0,0,.477-.027,4.411,4.411,0,0,0,.5-.082,8.407,8.407,0,0,1,.3,2.184v.4a1.653,1.653,0,0,1-.055.4,5.081,5.081,0,0,1-1.051.191q-.614.054-1.133.055a4.8,4.8,0,0,1-3.371-1.16,4.911,4.911,0,0,1-1.269-3.781Z" transform="translate(-532.103 -236.324)" fill="#fff"/>
      <path id="Path_11107" data-name="Path 11107" d="M643.119,269.515a2.968,2.968,0,0,0,1.146,2.375,4.614,4.614,0,0,0,2.73.737,10.5,10.5,0,0,0,1.9-.177,10.734,10.734,0,0,0,1.843-.505,6.379,6.379,0,0,1,.518,1.311,6.718,6.718,0,0,1,.246,1.638,13.3,13.3,0,0,1-4.8.819,9.325,9.325,0,0,1-3.371-.546,5.974,5.974,0,0,1-2.293-1.515,6.068,6.068,0,0,1-1.311-2.306,9.63,9.63,0,0,1-.423-2.921,9.534,9.534,0,0,1,.437-2.921,6.823,6.823,0,0,1,1.3-2.375,6.135,6.135,0,0,1,2.129-1.6,6.994,6.994,0,0,1,2.962-.587,6.3,6.3,0,0,1,2.621.519,5.784,5.784,0,0,1,1.952,1.419,5.99,5.99,0,0,1,1.215,2.143,8.458,8.458,0,0,1,.409,2.661q0,.519-.041,1.024t-.1.805Zm5.541-2.7a3.444,3.444,0,0,0-.723-2.116,2.3,2.3,0,0,0-1.87-.805,2.694,2.694,0,0,0-2.075.764,3.588,3.588,0,0,0-.846,2.157Z" transform="translate(-555.63 -255.074)" fill="#fff"/>
    </g>
  </g>
</svg>
