<svg xmlns="http://www.w3.org/2000/svg" xmlns:xlink="http://www.w3.org/1999/xlink" width="101.879" height="44.104" viewBox="0 0 101.879 44.104">
  <defs>
    <clipPath id="clip-path">
      <rect id="Rectangle_2391" data-name="Rectangle 2391" width="38.478" height="101.879" fill="#fff"/>
    </clipPath>
    <clipPath id="clip-path-2">
      <rect id="Rectangle_2392" data-name="Rectangle 2392" width="14.439" height="43.336" fill="#fff"/>
    </clipPath>
  </defs>
  <g id="Group_9769" data-name="Group 9769" transform="translate(0 44.104) rotate(-90)" opacity="0.5">
    <g id="Group_9766" data-name="Group 9766" transform="translate(5.626 0)">
      <g id="Group_9765" data-name="Group 9765" clip-path="url(#clip-path)">
        <path id="Path_11117" data-name="Path 11117" d="M.6,92.874H17.185v6.643H.6Zm18.279,0h4.743v6.643H18.874ZM6.748,86.941a1.348,1.348,0,0,0-1.182.487,3.183,3.183,0,0,0-.343,1.734c0,.244,0,.429.007.556s.013.251.023.372H.475Q.4,88.871.365,87.872T.326,86q0-3.141,1.052-4.385T5.07,80.374h8.313V78.032h3.8v2.342h5.107v6.567H17.185V90.03h-3.8V86.941ZM.6,69.611l1.59-.412a8.561,8.561,0,0,1-1.65-2.732A9.621,9.621,0,0,1,0,63.17a6.279,6.279,0,0,1,1.381-4.342,4.973,4.973,0,0,1,3.9-1.534,4.313,4.313,0,0,1,3.631,1.511q1.175,1.512,1.709,5.709.076.535.168,1.434.336,3.129,1.622,3.129a1.121,1.121,0,0,0,1.049-.573,3.787,3.787,0,0,0,.329-1.812,2.614,2.614,0,0,0-.406-1.573,1.691,1.691,0,0,0-1.246-.643V58.044a4.783,4.783,0,0,1,4.218,2.29,12.383,12.383,0,0,1,1.427,6.592A17.559,17.559,0,0,1,17.4,70.7,8.013,8.013,0,0,1,16.376,73.4a4.568,4.568,0,0,1-1.794,1.648,6.875,6.875,0,0,1-2.861.473H2.476a1.773,1.773,0,0,0-.817.184,1.524,1.524,0,0,0-.589.534H.6ZM7.988,69a24.369,24.369,0,0,1-.775-2.515q-.654-2.47-1.749-2.47a1.333,1.333,0,0,0-1.094.488,2.156,2.156,0,0,0-.395,1.387,3.272,3.272,0,0,0,.76,2.4,3.324,3.324,0,0,0,2.417.754c.233,0,.408,0,.524-.007A1.654,1.654,0,0,0,7.988,69ZM.6,43.547H17.185v6.09H14.168A5.192,5.192,0,0,1,16.8,51.517a5.725,5.725,0,0,1,.83,3.265v.593H11.06c.02-.242.038-.476.054-.7s.023-.436.023-.638a4.1,4.1,0,0,0-.9-2.929,3.771,3.771,0,0,0-2.827-.936H.6Zm16.589-3.61H.6V33.916H3.036A7.688,7.688,0,0,1,.863,31.329,7.183,7.183,0,0,1,.154,28.1a6.915,6.915,0,0,1,.5-2.7,5.1,5.1,0,0,1,3.654-3.052,20.676,20.676,0,0,1,4.279-.306h8.594v6.586H8.622a4.866,4.866,0,0,0-2.617.505,1.974,1.974,0,0,0-.725,1.742,2.161,2.161,0,0,0,.84,1.858,4.256,4.256,0,0,0,2.532.618h8.532ZM.6,6.471H17.146V0H23.06V20.161H17.146V13.69H.6Z" transform="translate(7.296 0.384)" fill="#fff"/>
      </g>
    </g>
    <g id="Group_9768" data-name="Group 9768" transform="translate(0 57.122)">
      <g id="Group_9767" data-name="Group 9767" transform="translate(0 0)" clip-path="url(#clip-path-2)">
        <path id="Path_11118" data-name="Path 11118" d="M7.277,36.347v5.914H5.741V38.574H4.608v3.418H3.149V38.574H1.728v3.8H.115V36.347Zm0-8.295v2.059l-3.968,2.7H7.277v2.093H.115V32.814l3.946-2.688H.115V28.052Zm0-3.8v2.227H.115V24.251Zm-4.224-3.13-.59,1.939A3.573,3.573,0,0,1,1.1,22.447a2.667,2.667,0,0,1-.823-1.041A3.923,3.923,0,0,1,0,19.824a4.631,4.631,0,0,1,.338-1.9A3.02,3.02,0,0,1,1.53,16.646a4.039,4.039,0,0,1,2.183-.537,3.714,3.714,0,0,1,2.726.942,3.579,3.579,0,0,1,.953,2.665,3.607,3.607,0,0,1-.547,2.121,3.214,3.214,0,0,1-1.682,1.146l-.439-1.958a1.684,1.684,0,0,0,.484-.211,1.327,1.327,0,0,0-.072-2.178,2.6,2.6,0,0,0-1.41-.3,2.7,2.7,0,0,0-1.632.359A1.227,1.227,0,0,0,1.651,19.7a1.213,1.213,0,0,0,.359.952A2.23,2.23,0,0,0,3.053,21.121Zm4.224-8.41v2.208H3.013a3.581,3.581,0,0,1-1.2-.2A2.578,2.578,0,0,1,.832,14.1a2.491,2.491,0,0,1-.593-.888A4.54,4.54,0,0,1,0,11.661,10.267,10.267,0,0,1,.074,10.52,3,3,0,0,1,.364,9.484a2.584,2.584,0,0,1,.617-.761A2.279,2.279,0,0,1,1.8,8.252a4.282,4.282,0,0,1,1.21-.206H7.277v2.208H2.914A1.245,1.245,0,0,0,2,10.58a1.223,1.223,0,0,0-.329.9,1.221,1.221,0,0,0,.324.9,1.24,1.24,0,0,0,.919.325Zm-4.224-7.7-.59,1.939A3.572,3.572,0,0,1,1.1,6.337,2.666,2.666,0,0,1,.278,5.3,3.923,3.923,0,0,1,0,3.714a4.631,4.631,0,0,1,.338-1.9A3.021,3.021,0,0,1,1.53.536,4.039,4.039,0,0,1,3.713,0,3.714,3.714,0,0,1,6.439.942a3.579,3.579,0,0,1,.953,2.665,3.607,3.607,0,0,1-.547,2.121A3.214,3.214,0,0,1,5.163,6.874L4.723,4.915A1.685,1.685,0,0,0,5.207,4.7a1.229,1.229,0,0,0,.534-1.04,1.277,1.277,0,0,0-.606-1.138,2.6,2.6,0,0,0-1.41-.3,2.7,2.7,0,0,0-1.632.359,1.227,1.227,0,0,0-.442,1.007,1.213,1.213,0,0,0,.359.952A2.23,2.23,0,0,0,3.053,5.011Z" transform="translate(3.149 0.48)" fill="#fff"/>
      </g>
    </g>
  </g>
</svg>
