<svg xmlns="http://www.w3.org/2000/svg" width="15.223" height="15.07" viewBox="0 0 15.223 15.07">
  <g id="Group_9734" data-name="Group 9734" opacity="0.7">
    <path id="Path_65" data-name="Path 65" d="M-680.637,895.281l-.564.552-.173.125a3.333,3.333,0,0,1-.75.408,3.5,3.5,0,0,1-.866.217c-.027,0-.1.008-.228.008-.841,0-3.872-.285-7.545-3.956-3.093-3.094-4.236-5.344-3.943-7.766a3.5,3.5,0,0,1,.216-.869,3.348,3.348,0,0,1,.422-.77l.06-.081.011-.034.6-.6a.782.782,0,0,1,.553-.231.691.691,0,0,1,.494.2l2.367,2.368a.684.684,0,0,1,.2.508.783.783,0,0,1-.233.542l-1.453,1.452.307.551A12.323,12.323,0,0,0-689,890.882a12.317,12.317,0,0,0,2.973,2.153l.558.311,1.453-1.452a.779.779,0,0,1,.554-.233.7.7,0,0,1,.5.2l2.365,2.366A.749.749,0,0,1-680.637,895.281Z" transform="translate(694.749 -881.521)" fill="#fff"/>
    <g id="Group_37" data-name="Group 37" transform="translate(6.665)">
      <path id="Path_66" data-name="Path 66" d="M-671.7,895.244a3.93,3.93,0,0,0-1.786-1.022l-.311-.083-.089.308a2.468,2.468,0,0,1-.117.318l-.169.359.385.1a2.911,2.911,0,0,1,1.346.762,2.915,2.915,0,0,1,.745,1.277l.065.233.486.027c.05.006.1.011.146.015l.457.044-.108-.447a3.956,3.956,0,0,0-1.051-1.889Zm0,0" transform="translate(674.422 -889.393)" fill="#fff"/>
      <path id="Path_67" data-name="Path 67" d="M-669.649,889.15a6.168,6.168,0,0,0-3.375-1.724l-.45-.075.07.449q.031.2.054.4l.029.238.239.047a5.093,5.093,0,0,1,2.691,1.407,5.11,5.11,0,0,1,1.481,3.093l.028.251.38.054c.062,0,.124,0,.211,0l.459.017-.036-.374a6.143,6.143,0,0,0-1.78-3.788Zm0,0" transform="translate(673.962 -884.888)" fill="#fff"/>
      <path id="Path_68" data-name="Path 68" d="M-668.888,882.562a8.634,8.634,0,0,0-5.623-2.513l-.414-.026.07.407c.021.132.047.268.074.409l.05.247.25.015a7.584,7.584,0,0,1,4.851,2.2,7.6,7.6,0,0,1,2.191,4.794l.024.324.322-.02c.077,0,.153-.011.264-.02l.462-.036-.026-.328a8.64,8.64,0,0,0-2.5-5.454Zm0,0" transform="translate(674.924 -880.023)" fill="#fff"/>
    </g>
  </g>
</svg>
