<svg xmlns="http://www.w3.org/2000/svg" width="142.919" height="32.041" viewBox="0 0 142.919 32.041">
  <g id="Group_9757" data-name="Group 9757" opacity="0.501">
    <path id="Path_11091" data-name="Path 11091" d="M48.855,85.343h5.4V82.027h-5.4v-8.4h7.338V70.312H45.478V92.186H56.662V88.869H48.855Z" transform="translate(-26.571 -65.229)" fill="#fff"/>
    <path id="Path_11092" data-name="Path 11092" d="M83.535,69.958A11.312,11.312,0,1,0,94.91,81.269,11.284,11.284,0,0,0,83.535,69.958m0,19.5a8.188,8.188,0,1,1,8.189-8.188,8.113,8.113,0,0,1-8.189,8.188" transform="translate(-24.998 -65.249)" fill="#fff"/>
    <path id="Path_11093" data-name="Path 11093" d="M115.045,89.311l-7.811-19h-1.468l9.28,22.374,9.282-22.374h-1.468Z" transform="translate(-23.017 -65.229)" fill="#fff"/>
    <rect id="Rectangle_2385" data-name="Rectangle 2385" width="1.374" height="21.874" transform="translate(106.432 5.084)" fill="#fff"/>
    <rect id="Rectangle_2386" data-name="Rectangle 2386" width="1.374" height="32.04" transform="translate(76.067 0)" fill="#fff"/>
    <path id="Path_11094" data-name="Path 11094" d="M134.887,71.625h4.219V92.186h1.376V71.625H144.7V70.312h-9.814Z" transform="translate(-21.301 -65.229)" fill="#fff"/>
    <path id="Path_11095" data-name="Path 11095" d="M154.338,69.841l-9.279,22.373h1.469l1.874-4.593h11.845l1.905,4.593h1.469Zm-5.4,16.529,5.4-13.156,5.407,13.156Z" transform="translate(-20.701 -65.256)" fill="#fff"/>
    <path id="Path_11096" data-name="Path 11096" d="M58.876,81.269A11.285,11.285,0,0,0,70.251,92.581V89.455a8.187,8.187,0,0,1,0-16.374V69.959a11.284,11.284,0,0,0-11.375,11.31" transform="translate(-25.781 -65.249)" fill="#fff"/>
    <path id="Path_11097" data-name="Path 11097" d="M31,69.969v-.011H27.623V92.581H31v-.011a11.306,11.306,0,0,0,0-22.6m0,19.47V73.1a8.177,8.177,0,0,1,0,16.335" transform="translate(-27.623 -65.249)" fill="#fff"/>
  </g>
</svg>
