<svg id="Group_10788" data-name="Group 10788" xmlns="http://www.w3.org/2000/svg" xmlns:xlink="http://www.w3.org/1999/xlink" width="206.28" height="117.874" viewBox="0 0 206.28 117.874">
  <defs>
    <clipPath id="clip-path">
      <rect id="Rectangle_2416" data-name="Rectangle 2416" width="206.28" height="117.874" fill="none"/>
    </clipPath>
    <clipPath id="clip-path-3">
      <rect id="Rectangle_2414" data-name="Rectangle 2414" width="42.405" height="32.488" fill="none"/>
    </clipPath>
  </defs>
  <g id="Group_10793" data-name="Group 10793" clip-path="url(#clip-path)">
    <g id="Group_10792" data-name="Group 10792">
      <g id="Group_10791" data-name="Group 10791" clip-path="url(#clip-path)">
        <path id="Path_11122" data-name="Path 11122" d="M162.08,32.053a21.909,21.909,0,0,0-38.986,19.591,59.464,59.464,0,0,0,9.548-8.352,12.943,12.943,0,0,0,1.078-1.6,3.549,3.549,0,0,1,3.633-1.854,1.989,1.989,0,0,1,1.852,1.471,2.208,2.208,0,0,1-1.042,2.252c-.8.616-1.5.214-2.2-.38-.829,1.568-1.322,4.39-.71,5,2.921,2.921,5.95-5.81,6.671-6.648a1.883,1.883,0,0,1,2.117-.749c.934.325.81,1.188.733,1.944a32.811,32.811,0,0,0,.171,7.5c2.961-9.968,11.475-15.859,17.139-18.178" transform="translate(-37.319 -6.677)" fill="#00a4d2"/>
        <path id="Path_11123" data-name="Path 11123" d="M125.124,59.22a21.913,21.913,0,0,0,39.19-19.613c-5.511,2.211-14.7,8.559-16.662,20.358-.207.873-.478,1.918-1.585,1.982s-1.541-.94-1.821-1.784a18.83,18.83,0,0,1-.889-5.169c-.055-1.312-.107-2.625-.166-4.074a14.115,14.115,0,0,1-6.72,5.348c-3.5.993-3.287-3.423-3.287-3.423s-2.893,2.451-4.361,3.627a34.451,34.451,0,0,1-3.7,2.749" transform="translate(-38.406 -12.157)" fill="#00a4d2"/>
        <g id="Group_10790" data-name="Group 10790" transform="translate(86.218 26.949)" opacity="0.3">
          <g id="Group_10789" data-name="Group 10789">
            <g id="Group_10788-2" data-name="Group 10788" clip-path="url(#clip-path-3)">
              <path id="Path_11124" data-name="Path 11124" d="M125.124,59.22a21.913,21.913,0,0,0,39.19-19.613c-5.511,2.211-14.7,8.559-16.662,20.358-.207.873-.478,1.918-1.585,1.982s-1.541-.94-1.821-1.784a18.83,18.83,0,0,1-.889-5.169c-.055-1.312-.107-2.625-.166-4.074a14.115,14.115,0,0,1-6.72,5.348c-3.5.993-3.287-3.423-3.287-3.423s-2.893,2.451-4.361,3.627a34.451,34.451,0,0,1-3.7,2.749" transform="translate(-124.624 -39.107)" fill="#1a2b38"/>
            </g>
          </g>
        </g>
        <path id="Path_11125" data-name="Path 11125" d="M57.117,94.641a1.764,1.764,0,0,0-2.506-.25c-4.064,3.4-8.039,9.83-10.049,13.361l-.471.829-.252-.92c-1.172-4.288-5.173-13.869-17.56-15.143a1.664,1.664,0,0,0,.021,3.327c.043,0,.036.006.007.015,9.873,1.057,12.322,8.4,14.135,13.888.949,2.871,1.7,5.138,3.443,5.138,1.444,0,2.314-1.742,3.63-4.377a43.922,43.922,0,0,1,9.472-13.356,1.809,1.809,0,0,0,.13-2.513m138.926,17.9c-.173.1-6.8,5-8.711.715-.856-1.923-1.116-2.112-2.132-1.555-2.124,1.174-3.663,3.015-5.962,3.015-3.945,0-3.713-3.575-4.871-3.792-.45-.085-1.059.136-1.977.868-.708.76-1.381,1.532-1.783,1.941a3.108,3.108,0,0,1-2.449,1.293c-2.665,0-2.8-7.032-3.41-7.032-.167,0-.376.211-.66.6a29.488,29.488,0,0,1-4.2,5.741c-3.631,2.913-6-4.7-6.551-4.7s-3.868,5.974-6.47,5.974-2.222-5.208-2.222-5.208-5.312,4.573-10.541,4.573c-4.727,0-4.921-3.928-5.635-3.924s-4.217,3.894-7.838,3.894a5.094,5.094,0,0,1-5.316-4.917s-5.24,5-11.171,5c-4.7,0-5.675-3.284-5.675-3.284L93.887,113.2c-1.521,1.378-2.8,2.559-4.946,2.553s-4.238-.139-4.317-2.076c.251-1.11.588-1.329,1.467-1.43s2.925,1.142,4.106.094c2.6-2.3-.891-4.451-2.229-5.91-3.568,3.608-8.322,8.5-11.189,8.594-2.514,0-4.582-4.622-4.582-4.622s-3.18,4.55-4.726,4.587c-2.166,0-1.8-2.708-3.363-2.708s-3.6,2.765-5.8,2.742a3.949,3.949,0,0,1-3.223-3.1c-.525.546-1.367,2.227-3,1.932-2.39-.622-1.1-2.867.293-4.547a26.339,26.339,0,0,1,8.831-6.755c3.4-1.679,5.206-.674,5.473.067a1.542,1.542,0,0,1-1.18,2.066c-2.514.527-6.081,2.27-7.175,3.7s-.974,3.161.353,3.161c3.558,0,5.484-7.518,8.157-2.991.335.658.669,1.291,1,1.948l4.223-5.592c.776-4.043-.846-15.942,4.571-15.942a2.6,2.6,0,0,1,1.841.866c1.044,1.074,1.771,4.191,1.611,6.709-.275,4.324-2.809,6.529-4.443,8.6,0,0-.13,5.9,1.453,5.9,3.291,0,8.954-7.46,8.954-8.01-.846-1.559.828-2.167,1.708-2.167,1.29,0,.893,1.767,3.153,3.887a12.6,12.6,0,0,1,3.469,4.9c.155.446.107.335.107.335l3.781-1.337s3.517-7.984,10.1-7.984c5.93,0,2.945,5.5,2.5,6.041-1.9,2.322-5.105,3.442-9.24,3.685,0,.649,1.3,1.855,2.358,1.921,3.5.22,9.29-4.9,10.6-6.133,5.2-4.869,12.6-6.409,12.6-3.542,0,2.723-8.658,2.1-8.658,6.618,0,1.57.447,2.473,2.149,2.473s3.587-.669,6.79-3.344c0,0,5.048-7.156,10.765-7.156,1.93,0,2.324.622,2.324,1.276,0,1.238-2.128,1.724-2.851,1.927-1.22.344-5.919,2.514-5.919,4.946a2.074,2.074,0,0,0,2.27,2.352c6.73,0,10.014-4.864,11.035-6.3.6-3.77.681-7.932,1.351-11.77.144-.827,1.293-5.69,3.831-5.69,1.68,0,6.325,2.075,2.294,12.746-1.092,2.058-3.52,5.863-3.52,5.863s-.98,3.566.131,2.44,3.933-4.819,5.016-4.819c.492,0,1.006.266,1.5,1.211,1.076,2.054,1.673,4.986,2.687,4.986,1.386,0,4.582-7.918,7.563-7.918a1.593,1.593,0,0,1,1.7,1.43s.551,6.488,1.658,6.488c1.771,0,7.081-9.527,14.24-9.527,1.272.015,3.342.365,3.342,2.027a1.608,1.608,0,0,1-1.336,1.833c-3.6.255-7.93,2.169-6.917,5.311,1.094,2.2,3.488-.229,5.361-1.716,1.039-.823,2.46-2.427,3.6-1.439,1.22,1.442,1.086,4.317,2.655,4.849,1.811.615,2.432-.832,5.017-1.715,1.713-.374,2.456,1.576.772,2.515M76.626,92.48c-1.121.053-1.226,6.2-1.226,8.391,1.728-2.194,2.555-8.4,1.226-8.391m32.059,11.189c-1.541-1.258-4.7,1.743-6.73,4.175,4.135-.324,8.271-2.918,6.73-4.175m39.73-2.433a9.892,9.892,0,0,0,2.067-3.689c.856-2.422.482-5.242-.369-5.235-.879.042-1.7,8.924-1.7,8.924M180.9,123.262l1.559,3.79h-3.126Zm-1.843,4.461h3.686l.794,1.895h.855l-3.136-7.21h-.713l-3.136,7.21h.855Zm-15.238.327a2.311,2.311,0,0,1-2.067,1.08,3.121,3.121,0,0,1,0-6.235,2.383,2.383,0,0,1,1.854.947l.642-.479a3.139,3.139,0,0,0-2.5-1.139,3.788,3.788,0,0,0,0,7.576,3.176,3.176,0,0,0,2.668-1.323Zm-20.024-5.642h-.732v7.21h.732Zm-21.409,0h-1.119v7.21h.732v-6.233h.021l2.608,6.233h.387l2.608-6.233h.021v6.233h.732v-7.21H127.25l-2.435,5.865Zm-18.322.854,1.558,3.79H102.49Zm-1.844,4.461H105.9l.794,1.895h.855l-3.136-7.21H103.7l-3.136,7.21h.855ZM83.5,123.079h1.3c1.315,0,1.762.56,1.762,1.253s-.448,1.264-1.762,1.264H83.5Zm0,3.188h1.223l1.977,3.351h.9L85.522,126.2a1.829,1.829,0,0,0,1.843-1.864c0-1.294-.905-1.924-2.372-1.924h-2.22v7.21H83.5Zm-18.771-.062h3.494v-.671H64.733v-2.455h3.738v-.671H64v7.21h4.592v-.671h-3.86Zm-15.3,1.845a2.311,2.311,0,0,1-2.067,1.08,3.121,3.121,0,0,1,0-6.235,2.381,2.381,0,0,1,1.853.947l.642-.479a3.137,3.137,0,0,0-2.495-1.139,3.788,3.788,0,0,0,0,7.576,3.177,3.177,0,0,0,2.668-1.323Z" transform="translate(-7.562 -27.003)" fill="#1a2b38"/>
        <path id="Path_11126" data-name="Path 11126" d="M227.423,102.551a2.114,2.114,0,1,0-2.223-2.111,2.17,2.17,0,0,0,2.223,2.111" transform="translate(-69.124 -30.182)" fill="#00a4d2"/>
      </g>
    </g>
  </g>
</svg>
