<svg xmlns="http://www.w3.org/2000/svg" xmlns:xlink="http://www.w3.org/1999/xlink" width="161.627" height="69.97" viewBox="0 0 161.627 69.97">
  <defs>
    <clipPath id="clip-path">
      <rect id="Rectangle_2391" data-name="Rectangle 2391" width="64.344" height="161.627" fill="#fff"/>
    </clipPath>
    <clipPath id="clip-path-2">
      <rect id="Rectangle_2392" data-name="Rectangle 2392" width="14.439" height="43.336" fill="#fff"/>
    </clipPath>
  </defs>
  <g id="Group_9769" data-name="Group 9769" transform="translate(0 69.97) rotate(-90)">
    <g id="Group_9766" data-name="Group 9766" transform="translate(5.626 0)">
      <g id="Group_9765" data-name="Group 9765" clip-path="url(#clip-path)">
        <path id="Path_11117" data-name="Path 11117" d="M1,147.341H28.736v10.54H1Zm30.567,0h7.931v10.54H31.562Zm-20.278-9.412a2.31,2.31,0,0,0-1.977.773,4.836,4.836,0,0,0-.574,2.751c0,.387,0,.68.012.882s.022.4.038.59H.795q-.12-1.934-.185-3.518T.546,136.44q0-4.983,1.76-6.957t6.173-1.972h13.9v-3.716h6.357v3.716h8.541v10.418H28.736v4.9H22.379v-4.9ZM1,110.435l2.659-.653A13.465,13.465,0,0,1,.9,105.447a14.556,14.556,0,0,1-.9-5.23,9.633,9.633,0,0,1,2.31-6.888A8.552,8.552,0,0,1,8.826,90.9q4.109,0,6.072,2.4t2.858,9.057q.126.848.281,2.275.563,4.963,2.713,4.963a1.9,1.9,0,0,0,1.754-.908,5.743,5.743,0,0,0,.55-2.875,3.988,3.988,0,0,0-.678-2.5,2.877,2.877,0,0,0-2.083-1.02v-10.2a8.109,8.109,0,0,1,7.054,3.632q2.387,3.558,2.386,10.458a26.483,26.483,0,0,1-.638,5.993,12.331,12.331,0,0,1-1.71,4.272,7.511,7.511,0,0,1-3,2.614,12.051,12.051,0,0,1-4.784.75H4.14a3.1,3.1,0,0,0-1.366.291,2.506,2.506,0,0,0-.985.847H1Zm12.361-.969a37.219,37.219,0,0,1-1.3-3.99q-1.093-3.918-2.924-3.918a2.281,2.281,0,0,0-1.83.775,3.3,3.3,0,0,0-.66,2.2,5.024,5.024,0,0,0,1.27,3.81,5.756,5.756,0,0,0,4.042,1.2c.389,0,.682,0,.877-.011A2.908,2.908,0,0,0,13.357,109.466ZM1,69.086H28.736v9.662H23.692a8.674,8.674,0,0,1,4.395,2.981,8.728,8.728,0,0,1,1.389,5.18v.94H18.494c.034-.385.064-.756.09-1.11s.038-.691.038-1.013a6.283,6.283,0,0,0-1.507-4.647A6.518,6.518,0,0,0,12.388,79.6H1Zm27.741-5.727H1V53.806H5.077a12.374,12.374,0,0,1-3.634-4.1A10.91,10.91,0,0,1,.257,44.582,10.478,10.478,0,0,1,1.1,40.3a8.375,8.375,0,0,1,2.5-3.2A9.016,9.016,0,0,1,7.21,35.455a36.4,36.4,0,0,1,7.156-.485h14.37V45.418H14.418a8.507,8.507,0,0,0-4.377.8A3.064,3.064,0,0,0,8.83,48.983a3.361,3.361,0,0,0,1.4,2.947,7.415,7.415,0,0,0,4.234.981H28.736ZM1,10.265H28.672V0h9.889V31.984H28.672V21.719H1Z" transform="translate(12.201 0.609)" fill="#fff"/>
      </g>
    </g>
    <g id="Group_9768" data-name="Group 9768" transform="translate(0 116.87)">
      <g id="Group_9767" data-name="Group 9767" transform="translate(0 0)" clip-path="url(#clip-path-2)">
        <path id="Path_11118" data-name="Path 11118" d="M7.277,36.347v5.914H5.741V38.574H4.608v3.418H3.149V38.574H1.728v3.8H.115V36.347Zm0-8.295v2.059l-3.968,2.7H7.277v2.093H.115V32.814l3.946-2.688H.115V28.052Zm0-3.8v2.227H.115V24.251Zm-4.224-3.13-.59,1.939A3.573,3.573,0,0,1,1.1,22.447a2.667,2.667,0,0,1-.823-1.041A3.923,3.923,0,0,1,0,19.824a4.631,4.631,0,0,1,.338-1.9A3.02,3.02,0,0,1,1.53,16.646a4.039,4.039,0,0,1,2.183-.537,3.714,3.714,0,0,1,2.726.942,3.579,3.579,0,0,1,.953,2.665,3.607,3.607,0,0,1-.547,2.121,3.214,3.214,0,0,1-1.682,1.146l-.439-1.958a1.684,1.684,0,0,0,.484-.211,1.327,1.327,0,0,0-.072-2.178,2.6,2.6,0,0,0-1.41-.3,2.7,2.7,0,0,0-1.632.359A1.227,1.227,0,0,0,1.651,19.7a1.213,1.213,0,0,0,.359.952A2.23,2.23,0,0,0,3.053,21.121Zm4.224-8.41v2.208H3.013a3.581,3.581,0,0,1-1.2-.2A2.578,2.578,0,0,1,.832,14.1a2.491,2.491,0,0,1-.593-.888A4.54,4.54,0,0,1,0,11.661,10.267,10.267,0,0,1,.074,10.52,3,3,0,0,1,.364,9.484a2.584,2.584,0,0,1,.617-.761A2.279,2.279,0,0,1,1.8,8.252a4.282,4.282,0,0,1,1.21-.206H7.277v2.208H2.914A1.245,1.245,0,0,0,2,10.58a1.223,1.223,0,0,0-.329.9,1.221,1.221,0,0,0,.324.9,1.24,1.24,0,0,0,.919.325Zm-4.224-7.7-.59,1.939A3.572,3.572,0,0,1,1.1,6.337,2.666,2.666,0,0,1,.278,5.3,3.923,3.923,0,0,1,0,3.714a4.631,4.631,0,0,1,.338-1.9A3.021,3.021,0,0,1,1.53.536,4.039,4.039,0,0,1,3.713,0,3.714,3.714,0,0,1,6.439.942a3.579,3.579,0,0,1,.953,2.665,3.607,3.607,0,0,1-.547,2.121A3.214,3.214,0,0,1,5.163,6.874L4.723,4.915A1.685,1.685,0,0,0,5.207,4.7a1.229,1.229,0,0,0,.534-1.04,1.277,1.277,0,0,0-.606-1.138,2.6,2.6,0,0,0-1.41-.3,2.7,2.7,0,0,0-1.632.359,1.227,1.227,0,0,0-.442,1.007,1.213,1.213,0,0,0,.359.952A2.23,2.23,0,0,0,3.053,5.011Z" transform="translate(3.149 0.48)" fill="#fff"/>
      </g>
    </g>
  </g>
</svg>
