<svg xmlns="http://www.w3.org/2000/svg" width="171.359" height="45.661" viewBox="0 0 171.359 45.661">
  <g id="Group_10795" data-name="Group 10795" transform="translate(0.707 0.707)">
    <path id="Subtraction_1" data-name="Subtraction 1" d="M22.227,44.454h0L0,22.227,22.227,0,44.454,22.227,22.227,44.454Zm0-35.224a12.995,12.995,0,1,0,9.19,3.806A12.912,12.912,0,0,0,22.227,9.23Z" transform="translate(0 0)" fill="#009de1" stroke="rgba(0,0,0,0)" stroke-miterlimit="10" stroke-width="1"/>
    <g id="Group_9758" data-name="Group 9758" transform="translate(51.648 7.799)">
      <path id="Path_11100" data-name="Path 11100" d="M279.346,238.126a14.894,14.894,0,0,1,2.385-.2,15.73,15.73,0,0,1,2.453.2v19.924h8.366a10.086,10.086,0,0,1,.134,1.092q.033.521.033.991,0,.538-.033,1.058a10.04,10.04,0,0,1-.134,1.092h-13.2Z" transform="translate(-279.346 -237.286)" fill="#fff"/>
      <path id="Path_11101" data-name="Path 11101" d="M331.489,261.849a14.208,14.208,0,0,1,4.771,0v9.206a9.739,9.739,0,0,0,.218,2.268,3.314,3.314,0,0,0,.672,1.411,2.472,2.472,0,0,0,1.125.739,5.113,5.113,0,0,0,1.579.218,7.84,7.84,0,0,0,2.083-.235V261.849a14.291,14.291,0,0,1,2.352-.2,14.492,14.492,0,0,1,2.385.2v16.7a22.711,22.711,0,0,1-2.839.722,18.73,18.73,0,0,1-3.679.353,19.577,19.577,0,0,1-3.293-.269,6.434,6.434,0,0,1-2.772-1.142,5.891,5.891,0,0,1-1.9-2.554,11.729,11.729,0,0,1-.706-4.469Z" transform="translate(-316.572 -254.222)" fill="#fff"/>
      <path id="Path_11102" data-name="Path 11102" d="M395.024,261.346a9.075,9.075,0,0,1,.941-.151,9.777,9.777,0,0,1,1.042-.051,8.856,8.856,0,0,1,1.008.051q.436.05.907.151a1.949,1.949,0,0,1,.185.487q.084.32.151.672t.118.689q.05.336.084.571a7.874,7.874,0,0,1,.806-1.008,5.78,5.78,0,0,1,1.092-.907,5.91,5.91,0,0,1,1.394-.655,5.5,5.5,0,0,1,1.713-.252,5.779,5.779,0,0,1,4.452,1.613q1.5,1.613,1.5,5.074v11.088a14.225,14.225,0,0,1-4.771,0v-9.811a5.71,5.71,0,0,0-.555-2.789,2.034,2.034,0,0,0-1.932-.974,4.389,4.389,0,0,0-1.176.168,2.47,2.47,0,0,0-1.092.655,3.518,3.518,0,0,0-.79,1.361,7.137,7.137,0,0,0-.3,2.285v9.105a14.228,14.228,0,0,1-4.771,0Z" transform="translate(-361.93 -253.719)" fill="#fff"/>
      <path id="Path_11103" data-name="Path 11103" d="M465.25,267.293a2.784,2.784,0,0,0-.269-1.311,2.014,2.014,0,0,0-.739-.79,3.086,3.086,0,0,0-1.159-.386,10.608,10.608,0,0,0-1.529-.1,11.88,11.88,0,0,0-3.864.706,9.011,9.011,0,0,1-.706-1.646,6.378,6.378,0,0,1-.235-1.848,17.839,17.839,0,0,1,2.957-.739,17.632,17.632,0,0,1,2.755-.235,8.143,8.143,0,0,1,5.46,1.68q1.965,1.68,1.966,5.376v10.079a27.827,27.827,0,0,1-2.856.706,19.5,19.5,0,0,1-3.8.336,15.17,15.17,0,0,1-3.142-.3,6.735,6.735,0,0,1-2.453-1.008A4.743,4.743,0,0,1,456.06,276a6.047,6.047,0,0,1-.554-2.722,4.976,4.976,0,0,1,.689-2.7,5.313,5.313,0,0,1,1.781-1.747,7.876,7.876,0,0,1,2.435-.941,12.9,12.9,0,0,1,2.688-.286q.974,0,2.15.1Zm0,3.461q-.4-.067-.873-.118a8.027,8.027,0,0,0-.841-.05,4.958,4.958,0,0,0-2.6.588,2.059,2.059,0,0,0-.957,1.9,2.129,2.129,0,0,0,.369,1.344,2.2,2.2,0,0,0,.89.689,3.641,3.641,0,0,0,1.109.269q.587.05,1.025.05a6.153,6.153,0,0,0,1.008-.084c.336-.056.626-.106.873-.152Z" transform="translate(-405.109 -253.719)" fill="#fff"/>
      <path id="Path_11104" data-name="Path 11104" d="M516.8,242.8h-6.014a10.789,10.789,0,0,1-.2-2.117,10.439,10.439,0,0,1,.2-2.05h16.968a10.421,10.421,0,0,1,.2,2.05,10.77,10.77,0,0,1-.2,2.117h-6.014v19.991q-.605.067-1.21.118t-1.176.05q-.572,0-1.226-.034t-1.327-.134Z" transform="translate(-444.431 -237.789)" fill="#009ce1"/>
      <path id="Path_11105" data-name="Path 11105" d="M574.929,246.949h-2.251a7.513,7.513,0,0,1-.151-.924,9.059,9.059,0,0,1-.05-.924,7.911,7.911,0,0,1,.2-1.781H579.6v17.371a14.325,14.325,0,0,1-2.352.2,14.127,14.127,0,0,1-2.318-.2Zm-.706-6.552a12.956,12.956,0,0,1-.2-2.251,13.36,13.36,0,0,1,.2-2.251q.571-.1,1.226-.151t1.193-.05q.571,0,1.243.05t1.243.151a9.978,9.978,0,0,1,.135,1.126q.033.554.033,1.125,0,.538-.033,1.109a9.939,9.939,0,0,1-.135,1.142,10,10,0,0,1-1.226.134q-.656.034-1.227.034-.538,0-1.209-.034A10.03,10.03,0,0,1,574.224,240.4Z" transform="translate(-488.616 -235.693)" fill="#009ce1"/>
      <path id="Path_11106" data-name="Path 11106" d="M608.646,236.717a14.482,14.482,0,0,1,2.385-.2,14.3,14.3,0,0,1,2.352.2v17.639a9.6,9.6,0,0,0,.118,1.68,2.479,2.479,0,0,0,.369.991,1.288,1.288,0,0,0,.655.487,3.213,3.213,0,0,0,1.008.135,5.61,5.61,0,0,0,.588-.034,5.426,5.426,0,0,0,.621-.1,10.346,10.346,0,0,1,.37,2.688v.487a2.034,2.034,0,0,1-.068.487,6.254,6.254,0,0,1-1.294.235q-.756.067-1.394.067a5.911,5.911,0,0,1-4.149-1.428q-1.562-1.428-1.562-4.653Z" transform="translate(-514.438 -236.28)" fill="#009ce1"/>
      <path id="Path_11107" data-name="Path 11107" d="M644,271.493a3.653,3.653,0,0,0,1.411,2.923,5.679,5.679,0,0,0,3.36.907,12.926,12.926,0,0,0,2.335-.218,13.211,13.211,0,0,0,2.268-.622,7.85,7.85,0,0,1,.638,1.613,8.269,8.269,0,0,1,.3,2.016,16.371,16.371,0,0,1-5.913,1.008,11.477,11.477,0,0,1-4.149-.672,7.353,7.353,0,0,1-2.822-1.865,7.469,7.469,0,0,1-1.613-2.839,11.853,11.853,0,0,1-.521-3.6,11.734,11.734,0,0,1,.538-3.6,8.4,8.4,0,0,1,1.6-2.923,7.55,7.55,0,0,1,2.62-1.965,8.608,8.608,0,0,1,3.645-.722,7.753,7.753,0,0,1,3.225.638,7.118,7.118,0,0,1,2.4,1.747,7.373,7.373,0,0,1,1.5,2.638,10.411,10.411,0,0,1,.5,3.276q0,.639-.051,1.26t-.118.991Zm6.82-3.326a4.239,4.239,0,0,0-.89-2.6,2.83,2.83,0,0,0-2.3-.991,3.316,3.316,0,0,0-2.554.941,4.417,4.417,0,0,0-1.042,2.654Z" transform="translate(-536.32 -253.719)" fill="#009ce1"/>
    </g>
  </g>
</svg>
