<svg xmlns="http://www.w3.org/2000/svg" width="138.632" height="98.469" viewBox="0 0 138.632 98.469">
  <g id="Group_10808" data-name="Group 10808" transform="translate(889.661 16.337)">
    <path id="Path_11214" data-name="Path 11214" d="M-829.831-6.107h2.3a4.22,4.22,0,0,0,4.606-4.579c0-2.945-1.679-4.635-4.606-4.635h-2.3Zm2.3.832h-3.171V-16.154h3.171c3.432,0,5.481,2.034,5.481,5.44s-2.049,5.439-5.481,5.439" fill="#fff"/>
    <path id="Path_11215" data-name="Path 11215" d="M-812.638-15.505a4.725,4.725,0,0,0-4.762,4.79,4.725,4.725,0,0,0,4.762,4.79,4.671,4.671,0,0,0,4.762-4.79,4.671,4.671,0,0,0-4.762-4.79m0,10.413a5.57,5.57,0,0,1-5.637-5.623,5.57,5.57,0,0,1,5.637-5.622A5.506,5.506,0,0,1-807-10.715a5.57,5.57,0,0,1-5.637,5.623" fill="#fff"/>
    <path id="Path_11216" data-name="Path 11216" d="M-791.3-5.275h-.875v-9.313l-4.564,9.313h-.522l-4.579-9.315v9.315h-.875V-16.154h1.043L-797-6.689l4.665-9.465h1.029Z" fill="#fff"/>
    <path id="Path_11217" data-name="Path 11217" d="M-829.831,8.985h2.3a4.22,4.22,0,0,0,4.606-4.579c0-2.945-1.679-4.634-4.606-4.634h-2.3Zm2.3.832h-3.171V-1.061h3.171c3.432,0,5.481,2.033,5.481,5.44s-2.049,5.438-5.481,5.438" fill="#fff"/>
    <path id="Path_11218" data-name="Path 11218" d="M-811.6,9.817h-6.172V-1.061h6.172v.833h-5.3V3.927h5.3v.832h-5.3V8.985h5.3Z" fill="#fff"/>
    <path id="Path_11219" data-name="Path 11219" d="M-804.208,10a3.192,3.192,0,0,1-3.24-3.027l-.017-.243h.864l.025.2a2.331,2.331,0,0,0,2.354,2.239,2.336,2.336,0,0,0,2.4-2.253c0-1.7-1.4-2.068-2.42-2.34l-.076-.02c-.948-.234-2.9-.715-2.9-2.84a2.754,2.754,0,0,1,.765-2.039,3.2,3.2,0,0,1,2.294-.906,2.848,2.848,0,0,1,2.915,2.62l.034.256h-.869l-.033-.185A1.956,1.956,0,0,0-804.193-.4a2.032,2.032,0,0,0-2.156,2.042c-.011,1.42,1.084,1.809,2.634,2.2l.115.031a3.036,3.036,0,0,1,2.649,2.978A3.213,3.213,0,0,1-804.208,10" fill="#fff"/>
    <rect id="Rectangle_2456" data-name="Rectangle 2456" width="0.875" height="10.878" transform="translate(-796.637 -1.06)" fill="#fff"/>
    <path id="Path_11220" data-name="Path 11220" d="M-785.837,10a5.57,5.57,0,0,1-5.637-5.622,5.571,5.571,0,0,1,5.637-5.623,5.809,5.809,0,0,1,4.928,2.6l.209.343h-1.022l-.067-.089a4.936,4.936,0,0,0-4.048-2.025A4.726,4.726,0,0,0-790.6,4.379a4.725,4.725,0,0,0,4.762,4.789,4.946,4.946,0,0,0,4.759-3.38h-6.155V4.956h7.2l-.03.252A5.655,5.655,0,0,1-785.837,10" fill="#fff"/>
    <path id="Path_11221" data-name="Path 11221" d="M-767.205,9.817h-.877L-775.011.246V9.817h-.875V-1.061h.976l6.83,9.429V-1.061h.875Z" fill="#fff"/>
    <path id="Path_11222" data-name="Path 11222" d="M-825.421,24.91h-5.284V14.031h.874V24.078h4.41Z" fill="#fff"/>
    <path id="Path_11223" data-name="Path 11223" d="M-819.9,20.443h4.4l-2.208-5.21Zm7.287,4.467h-.943l-1.564-3.635h-5.154l-1.565,3.635h-.943l4.66-10.879h.848Z" fill="#fff"/>
    <path id="Path_11224" data-name="Path 11224" d="M-808.066,18.808h1.662a2.937,2.937,0,0,0,1.372-.241,1.789,1.789,0,0,0,.939-1.745,1.81,1.81,0,0,0-.923-1.668,2.876,2.876,0,0,0-1.49-.29h-1.56Zm0,5.27h1.973a4.216,4.216,0,0,0,1.416-.212,1.981,1.981,0,0,0,1.231-1.96,2.148,2.148,0,0,0-1.274-2.032,3.671,3.671,0,0,0-1.684-.234h-1.662Zm1.958.832h-2.832V14.031h2.437a3.722,3.722,0,0,1,1.947.412,2.639,2.639,0,0,1,1.337,2.435,2.559,2.559,0,0,1-1.143,2.243,2.972,2.972,0,0,1,1.791,2.788,2.824,2.824,0,0,1-1.785,2.743,5.382,5.382,0,0,1-1.752.258" fill="#fff"/>
    <path id="Path_11225" data-name="Path 11225" d="M-842.6,44.87c.081-.143.168-.284.246-.429-.081.145-.164.289-.242.436l0-.007m-22.031,30.954a19.1,19.1,0,0,1-19.079-19.079,18.971,18.971,0,0,1,1.308-6.929,24.957,24.957,0,0,0,18.052,7.718,24.957,24.957,0,0,0,17.653-7.3,19,19,0,0,1,1.145,6.513,19.1,19.1,0,0,1-19.079,19.079m14.858-31.031a19.043,19.043,0,0,1-14.577,6.787A19.049,19.049,0,0,1-879.2,44.453a19.039,19.039,0,0,1,14.576-6.786,19.049,19.049,0,0,1,14.858,7.126m-14.577-31.372A19.1,19.1,0,0,1-845.267,32.5a19,19,0,0,1-1.3,6.926,24.964,24.964,0,0,0-18.055-7.714,24.953,24.953,0,0,0-17.652,7.3,19.01,19.01,0,0,1-1.146-6.514,19.1,19.1,0,0,1,19.079-19.079m88.183,18.166A25.1,25.1,0,0,0-798.3,44.828a25.1,25.1,0,0,0-22.138-13.241,25.145,25.145,0,0,0-21.9,12.828A24.866,24.866,0,0,0-839.312,32.5c0-.373-.012-.744-.029-1.113V-16.3h-5.926V16.32a24.98,24.98,0,0,0-19.079-8.853A25.063,25.063,0,0,0-889.379,32.5a24.894,24.894,0,0,0,3,11.877,24.865,24.865,0,0,0-3.284,12.368,25.064,25.064,0,0,0,25.034,25.034,25.063,25.063,0,0,0,25.033-25.034c0-.075-.005-.151-.006-.226h.017a19.169,19.169,0,0,1,19.147-18.953A19.216,19.216,0,0,1-801.3,56.707V81.021l.036,1.111h5.953V81.021l0-24.443a19.2,19.2,0,0,1,19.148-19.012A19.175,19.175,0,0,1-757.008,56.7V82.132h5.979V56.72a25.164,25.164,0,0,0-25.134-25.133" fill="#fff"/>
  </g>
</svg>
