<svg xmlns="http://www.w3.org/2000/svg" width="85.808" height="46.661" viewBox="0 0 85.808 46.661">
  <path id="Path_11233" data-name="Path 11233" d="M291.928,457.285c12.733,0,16.292-8.541,16.292-14,0-5.062-2.056-8.779-5.14-10.282a11.633,11.633,0,0,0,3.084-8.225c0-11.546-8.779-14.156-15.58-14.156H271.92v46.661Zm-8.541-11.151v-6.723H292.4c2.135,0,4.35.712,4.35,3.164,0,3.163-2.452,3.559-4.35,3.559Zm0-17.636v-6.723h6.96c1.977,0,4.35.712,4.35,3.164,0,3.163-2.452,3.559-4.35,3.559Zm-33.137-.08,1.9,10.2h-7.434Zm5.457,28.867h12.258l-8.936-46.661H247.8l-25.386,46.661H234.67l4.033-7.513h15.58Z" transform="translate(-222.412 -410.624)" fill="#fff"/>
</svg>
