<svg xmlns="http://www.w3.org/2000/svg" width="132.666" height="21.266" viewBox="0 0 132.666 21.266">
  <path id="Path_11119" data-name="Path 11119" d="M232.05,245.048a5.2,5.2,0,0,0,.448-2.215,4.762,4.762,0,0,0-.336-1.881,3.782,3.782,0,0,0-.85-1.3c-.09-.09-.182-.175-.28-.257a2.856,2.856,0,0,0-.324-.235,4.736,4.736,0,0,0-.594-.358c-.231-.12-.436-.216-.615-.291-.119-.045-.243-.089-.369-.134s-.25-.082-.37-.112c-.223-.074-.447-.138-.671-.19s-.44-.092-.649-.123a5.736,5.736,0,0,1-.583-.111q-.268-.068-.514-.112c-.209-.059-.422-.112-.638-.157s-.436-.1-.66-.157-.436-.119-.637-.179-.4-.127-.594-.2a2.891,2.891,0,0,1-.917-.56,1.09,1.09,0,0,1-.358-.828,1.311,1.311,0,0,1,.291-.851,1.944,1.944,0,0,1,.348-.313,3.233,3.233,0,0,1,.413-.246,4.552,4.552,0,0,1,.985-.336q.247-.044.481-.067c.157-.014.3-.022.437-.022a5.979,5.979,0,0,1,2.261.426,8.8,8.8,0,0,1,1.656.851.729.729,0,0,0,.526.111.688.688,0,0,0,.459-.291l.94-1.343a.666.666,0,0,0,.134-.515.68.68,0,0,0-.291-.447c-.164-.09-.313-.179-.447-.268s-.277-.179-.426-.269c-.21-.12-.426-.236-.65-.347a7.076,7.076,0,0,0-.694-.3c-.239-.074-.481-.146-.728-.213a7.626,7.626,0,0,0-.773-.167,11.163,11.163,0,0,0-1.835-.135,10.318,10.318,0,0,0-2.149.224,6.755,6.755,0,0,0-2.015.76,4.583,4.583,0,0,0-1.477,1.5,4.638,4.638,0,0,0-.582,2.395,4.332,4.332,0,0,0,.313,1.7,3.687,3.687,0,0,0,.873,1.253,4.614,4.614,0,0,0,1.209.874,6.378,6.378,0,0,0,1.365.559,6.753,6.753,0,0,0,1.343.336q.312.068.6.123t.537.1q.38.067.727.134t.684.156c.238.06.455.12.649.179a4.614,4.614,0,0,1,.537.2,2.645,2.645,0,0,1,.805.56,1.3,1.3,0,0,1,.314.851,1.525,1.525,0,0,1-.2.761,2.171,2.171,0,0,1-.6.693,3.056,3.056,0,0,1-.984.493,4.1,4.1,0,0,1-1.343.2,6.165,6.165,0,0,1-2.753-.627,18.445,18.445,0,0,1-1.969-1.075.718.718,0,0,0-.515-.112.608.608,0,0,0-.425.291l-.941,1.388a.708.708,0,0,0-.112.515.606.606,0,0,0,.291.426q.246.18.47.324t.448.28c.238.15.485.287.738.414s.515.243.784.347a7.945,7.945,0,0,0,1.768.515,11.145,11.145,0,0,0,2.261.2,9.867,9.867,0,0,0,2.53-.314,5.475,5.475,0,0,0,1.969-.94,4.034,4.034,0,0,0,1.276-1.545m15.67-3.582a5.931,5.931,0,0,1-1.151,1.78,5.563,5.563,0,0,1-1.7,1.231,4.977,4.977,0,0,1-4.177,0,5.555,5.555,0,0,1-1.7-1.231,5.952,5.952,0,0,1-1.151-1.78,5.518,5.518,0,0,1,0-4.241,5.77,5.77,0,0,1,1.151-1.78,5.668,5.668,0,0,1,1.7-1.22,4.982,4.982,0,0,1,4.177,0,5.676,5.676,0,0,1,1.7,1.22,5.75,5.75,0,0,1,1.151,1.78,5.514,5.514,0,0,1,0,4.241m.431,5.778-1.135-.548a8.541,8.541,0,0,0,1.766-1.346,8.663,8.663,0,0,0,1.824-2.7,8.481,8.481,0,0,0,0-6.614,8.557,8.557,0,0,0-4.522-4.533,8.446,8.446,0,0,0-6.6,0,8.552,8.552,0,0,0-4.522,4.533,8.478,8.478,0,0,0,0,6.614,8.664,8.664,0,0,0,1.824,2.7,8.487,8.487,0,0,0,1.131.942,9.764,9.764,0,0,0-.973.534,8.366,8.366,0,0,0-2.492,2.464l2.643,1.135a5.47,5.47,0,0,1,1.44-1.277,6.348,6.348,0,0,1,3.345-.92,8.491,8.491,0,0,1,1.605.156,8.2,8.2,0,0,1,1.67.518c.8.355,1.305.591,1.6.746.231.122.436.235.609.335l.3.153.191.094,1.309.632.575.256c.376.16.768.312,1.153.446a9.3,9.3,0,0,0,1.071.3,10.958,10.958,0,0,0,1.1.176,10.33,10.33,0,0,0,1.091.058,9.114,9.114,0,0,0,4.936-1.439,7.534,7.534,0,0,0,.672-.5,7.407,7.407,0,0,1-3.312-1.323,6.463,6.463,0,0,1-2.3.422,8.6,8.6,0,0,1-1.6-.154,8.207,8.207,0,0,1-1.673-.519c-.81-.359-1.314-.6-1.6-.748-.235-.124-.441-.238-.61-.335l-.3-.15c-.055-.029-.136-.068-.224-.109m19.836-4.826a8.709,8.709,0,0,0,.123-1.489v-9.065a.688.688,0,0,0-.694-.694h-1.746a.689.689,0,0,0-.695.694v9.043a4.541,4.541,0,0,1-.4,2.036,3.633,3.633,0,0,1-1.008,1.276,2.965,2.965,0,0,1-1.276.65,5.139,5.139,0,0,1-1.208.179,3.924,3.924,0,0,1-.571-.044q-.3-.045-.66-.135a3.323,3.323,0,0,1-1.276-.65,4.07,4.07,0,0,1-.985-1.276,4.539,4.539,0,0,1-.4-2.036v-9.043a.688.688,0,0,0-.694-.694h-1.768a.645.645,0,0,0-.47.2.671.671,0,0,0-.2.492v9.065a7.7,7.7,0,0,0,.493,2.843,5.86,5.86,0,0,0,1.432,2.171,6.246,6.246,0,0,0,2.216,1.388,7.868,7.868,0,0,0,2.888.492,8.05,8.05,0,0,0,2.91-.492,6.533,6.533,0,0,0,2.216-1.388,6.282,6.282,0,0,0,1.41-2.171,7.368,7.368,0,0,0,.369-1.354m11.572-.381a.4.4,0,0,1-.392.19h-3.313a.437.437,0,0,1-.4-.179.47.47,0,0,1,0-.447l1.768-3.693q.111-.269.291-.269t.29.269l1.746,3.693a.476.476,0,0,1,.011.437m6.2,5.316a.424.424,0,0,0-.034-.425l-7.767-15.512a.508.508,0,0,0-.9,0L269.3,246.928a.452.452,0,0,0-.011.425.408.408,0,0,0,.391.179h2.037a1.05,1.05,0,0,0,.571-.179,1.137,1.137,0,0,0,.413-.447l.65-1.322a.961.961,0,0,1,.4-.447,1.1,1.1,0,0,1,.582-.179h6.357a1.046,1.046,0,0,1,.57.179,1.184,1.184,0,0,1,.414.426l.672,1.343a.962.962,0,0,0,.4.447,1.1,1.1,0,0,0,.581.179h2.037a.411.411,0,0,0,.392-.179m18.5-.022a.669.669,0,0,0,.2-.492V231.528a.3.3,0,0,0-.268-.336.449.449,0,0,0-.448.179l-7.1,8.729a.6.6,0,0,1-.894,0l-7.074-8.729a.448.448,0,0,0-.448-.179.3.3,0,0,0-.268.336v15.311a.688.688,0,0,0,.694.693H290.4a.688.688,0,0,0,.694-.693v-6.895c0-.194.044-.305.134-.335s.193.03.313.179l4.23,5.081a.537.537,0,0,0,.873,0l4.253-5.081c.12-.165.22-.228.3-.191s.124.153.124.347v6.895a.686.686,0,0,0,.693.693h1.769a.644.644,0,0,0,.469-.2m15.669,0a.671.671,0,0,0,.2-.492v-1.433a.687.687,0,0,0-.693-.694h-7.544a.687.687,0,0,1-.693-.694v-2.462a.687.687,0,0,1,.693-.693h6.536a.688.688,0,0,0,.693-.694v-1.455a.687.687,0,0,0-.693-.694h-6.536a.687.687,0,0,1-.693-.694v-2.709a.688.688,0,0,1,.693-.694h7.544a.686.686,0,0,0,.693-.693v-1.388a.686.686,0,0,0-.693-.694H308.758a.688.688,0,0,0-.694.694v15a.688.688,0,0,0,.694.693h10.678a.672.672,0,0,0,.492-.2m13.384-10.543a2.812,2.812,0,0,1-.224,1.208,3.053,3.053,0,0,1-.581.851,2.242,2.242,0,0,1-.829.515,2.458,2.458,0,0,1-.872.18H327.18a.69.69,0,0,1-.694-.694v-4.23a.689.689,0,0,1,.694-.694h3.627a2.506,2.506,0,0,1,1.32.314,2.32,2.32,0,0,1,.761.761c.074.149.142.3.2.459a2.778,2.778,0,0,1,.135.482,4.362,4.362,0,0,1,.089.85m3.391,10.5a.534.534,0,0,0-.1-.492q-.805-1.119-1.556-2.115t-1.578-2.115a.489.489,0,0,1-.113-.458.607.607,0,0,1,.314-.37,5.227,5.227,0,0,0,1.858-1.7,5.62,5.62,0,0,0,.917-3.246,6.337,6.337,0,0,0-.4-2.283,5.344,5.344,0,0,0-.492-.963,5.175,5.175,0,0,0-.671-.828,5.892,5.892,0,0,0-1.768-1.163,6.385,6.385,0,0,0-2.3-.4h-6.76a.687.687,0,0,0-.693.694v15a.687.687,0,0,0,.693.693h1.768a.634.634,0,0,0,.481-.2.691.691,0,0,0,.19-.492v-3.828a.69.69,0,0,1,.694-.694H328.9a1.36,1.36,0,0,1,.6.157,1.33,1.33,0,0,1,.492.4l1.477,2.082q.381.515.75,1.019t.75,1.018a1.431,1.431,0,0,0,.492.38,1.347,1.347,0,0,0,.6.157h2.261a.345.345,0,0,0,.369-.246m5.763-10.811a1.091,1.091,0,0,1-.358-.828,1.308,1.308,0,0,1,.29-.851,1.965,1.965,0,0,1,.347-.313,3.286,3.286,0,0,1,.413-.246,4.552,4.552,0,0,1,.986-.336c.164-.03.324-.052.481-.067s.3-.022.436-.022a5.98,5.98,0,0,1,2.261.426,8.832,8.832,0,0,1,1.657.851.727.727,0,0,0,.526.111.687.687,0,0,0,.459-.291l.939-1.343a.663.663,0,0,0,.135-.515.682.682,0,0,0-.291-.447c-.165-.09-.314-.179-.448-.268s-.276-.179-.425-.269q-.314-.179-.649-.347a7.142,7.142,0,0,0-.693-.3c-.239-.074-.481-.146-.728-.213a7.671,7.671,0,0,0-.772-.167,11.158,11.158,0,0,0-1.835-.135,10.314,10.314,0,0,0-2.149.224,6.763,6.763,0,0,0-2.015.76,4.578,4.578,0,0,0-1.477,1.5,4.627,4.627,0,0,0-.582,2.395,4.307,4.307,0,0,0,.314,1.7,3.686,3.686,0,0,0,.872,1.253,4.641,4.641,0,0,0,1.209.874,6.382,6.382,0,0,0,1.366.559,6.754,6.754,0,0,0,1.344.336q.313.068.6.123t.537.1q.381.067.728.134t.683.156q.357.09.649.179a4.618,4.618,0,0,1,.537.2,2.638,2.638,0,0,1,.806.56,1.3,1.3,0,0,1,.313.851,1.525,1.525,0,0,1-.2.761,2.169,2.169,0,0,1-.6.693,3.059,3.059,0,0,1-.984.493,4.105,4.105,0,0,1-1.343.2,6.163,6.163,0,0,1-2.753-.627,18.48,18.48,0,0,1-1.97-1.075.717.717,0,0,0-.515-.112.61.61,0,0,0-.425.291l-.94,1.388a.712.712,0,0,0-.112.515.6.6,0,0,0,.291.426q.245.18.469.324t.448.28q.357.225.738.414t.784.347a7.938,7.938,0,0,0,1.768.515,11.154,11.154,0,0,0,2.261.2,9.863,9.863,0,0,0,2.53-.314,5.484,5.484,0,0,0,1.97-.94,4.038,4.038,0,0,0,1.276-1.545,5.2,5.2,0,0,0,.447-2.215,4.762,4.762,0,0,0-.336-1.881,3.785,3.785,0,0,0-.85-1.3c-.09-.09-.184-.175-.28-.257a2.9,2.9,0,0,0-.325-.235,4.788,4.788,0,0,0-.593-.358c-.232-.12-.436-.216-.616-.291-.12-.045-.243-.089-.369-.134s-.25-.082-.37-.112q-.335-.111-.671-.19c-.224-.052-.44-.092-.649-.123a5.694,5.694,0,0,1-.583-.111q-.268-.068-.514-.112c-.209-.059-.422-.112-.638-.157s-.436-.1-.66-.157-.436-.119-.638-.179-.4-.127-.593-.2a2.9,2.9,0,0,1-.918-.56" transform="translate(-219.404 -230.834)" fill="#fff" opacity="0.5"/>
</svg>
