<svg id="UNITED_KINGDOM" data-name="UNITED KINGDOM" xmlns="http://www.w3.org/2000/svg" xmlns:xlink="http://www.w3.org/1999/xlink" width="22.997" height="14.307" viewBox="0 0 22.997 14.307">
  <defs>
    <clipPath id="clip-path">
      <rect id="Rectangle_2352" data-name="Rectangle 2352" width="22.997" height="14.307" rx="2.021" fill="none"/>
    </clipPath>
  </defs>
  <g id="Group_9740" data-name="Group 9740">
    <g id="Group_9739" data-name="Group 9739">
      <g id="Group_9738" data-name="Group 9738" clip-path="url(#clip-path)">
        <rect id="Rectangle_2351" data-name="Rectangle 2351" width="22.997" height="14.307" fill="#fff"/>
        <path id="Path_11049" data-name="Path 11049" d="M378,261.278l7.6-4.537v-.636h-.524l-8.664,5.173Z" transform="translate(-362.603 -256.105)" fill="#bd0034"/>
        <path id="Path_11050" data-name="Path 11050" d="M378.208,269l7.958,4.75V272.8L379.8,269Z" transform="translate(-363.168 -259.576)" fill="#bd0034"/>
        <path id="Path_11051" data-name="Path 11051" d="M356.259,257.246l6.807,4.084h1.59l-8.4-5.034Z" transform="translate(-356.259 -256.157)" fill="#bd0034"/>
        <path id="Path_11052" data-name="Path 11052" d="M364.3,269l-8.037,4.8v.083h1.452L365.887,269Z" transform="translate(-356.259 -259.576)" fill="#bd0034"/>
        <path id="Path_11053" data-name="Path 11053" d="M383.825,256.105h-8.052v4.809Z" transform="translate(-362.402 -256.105)" fill="#1a237b"/>
        <path id="Path_11054" data-name="Path 11054" d="M366.9,256.105h-8.02l8.02,4.809Z" transform="translate(-357.084 -256.105)" fill="#1a237b"/>
        <path id="Path_11055" data-name="Path 11055" d="M387.312,261.975v-3.282l-5.462,3.282Z" transform="translate(-364.315 -256.802)" fill="#1a237b"/>
        <path id="Path_11056" data-name="Path 11056" d="M387.312,272.244V269H381.85Z" transform="translate(-364.315 -259.576)" fill="#1a237b"/>
        <path id="Path_11057" data-name="Path 11057" d="M359.545,274.017h7.565V269.5Z" transform="translate(-357.293 -259.71)" fill="#1a237b"/>
        <path id="Path_11058" data-name="Path 11058" d="M375.773,274.017h7.589l-7.589-4.521Z" transform="translate(-362.402 -259.71)" fill="#1a237b"/>
        <path id="Path_11059" data-name="Path 11059" d="M356.259,269v3.394L361.911,269Z" transform="translate(-356.259 -259.576)" fill="#1a237b"/>
        <path id="Path_11060" data-name="Path 11060" d="M356.259,261.932h5.652l-5.652-3.4Z" transform="translate(-356.259 -256.759)" fill="#1a237b"/>
        <path id="Path_11061" data-name="Path 11061" d="M366.786,256.105v6.023H356.259v2.551h10.528v5.734h2.133v-5.734h10.337v-2.551H368.919v-6.023Z" transform="translate(-356.259 -256.105)" fill="#bd0034"/>
      </g>
    </g>
  </g>
</svg>
